{"glyphs":{"0":{"ha":831,"x_min":111,"x_max":937,"o":"m 753 607 q 751 654 758 632 q 730 693 745 677 q 692 720 715 710 q 640 729 669 729 l 501 729 q 446 720 473 729 q 396 693 418 710 q 358 654 374 677 q 336 607 342 632 l 286 364 q 286 317 280 339 q 308 278 292 295 q 347 252 323 262 q 399 243 370 243 l 538 243 q 594 252 567 243 q 643 278 621 262 q 681 316 665 294 q 701 364 696 338 l 753 607 m 814 243 q 694 71 793 141 q 485 0 602 0 l 346 0 q 165 71 230 0 q 121 150 132 106 q 121 243 111 193 l 225 729 q 343 900 243 829 q 442 954 389 936 q 553 972 495 972 l 692 972 q 872 900 805 972 q 918 729 937 829 l 814 243 z "},"1":{"ha":831,"x_min":277,"x_max":692,"o":"m 277 0 l 329 243 l 399 243 l 501 729 l 432 729 l 484 972 l 692 972 l 538 243 l 607 243 l 554 0 l 277 0 z "},"2":{"ha":831,"x_min":69,"x_max":937,"o":"m 69 0 l 134 304 q 175 397 145 355 q 252 475 205 439 q 352 529 300 511 q 463 547 405 547 l 567 547 q 608 554 588 547 q 646 574 629 562 q 674 602 663 586 q 690 637 686 618 q 689 673 694 656 q 673 702 684 690 q 644 722 661 715 q 606 729 627 729 l 225 729 l 277 972 l 692 972 q 872 900 805 972 q 918 729 937 829 l 904 668 q 786 497 882 568 q 685 444 738 462 q 575 425 633 425 l 401 425 q 359 418 380 425 q 322 398 339 410 q 294 370 306 386 q 278 335 282 353 l 260 243 l 814 243 l 762 0 l 69 0 z "},"3":{"ha":831,"x_min":69,"x_max":937,"o":"m 814 243 q 774 150 804 193 q 696 72 744 108 q 485 0 599 0 l 69 0 l 121 243 l 501 243 q 543 250 522 243 q 581 270 564 258 q 609 299 597 283 q 625 335 621 316 q 625 370 629 353 q 608 398 620 386 q 578 418 596 410 q 539 425 561 425 l 297 425 l 325 547 l 567 547 q 608 554 588 547 q 646 574 629 562 q 674 602 663 586 q 690 637 686 618 q 689 673 694 656 q 673 702 684 690 q 644 722 661 715 q 606 729 627 729 l 225 729 l 277 972 l 692 972 q 872 900 805 972 q 918 729 937 829 l 914 717 q 885 642 905 678 q 831 575 864 606 q 758 520 797 543 q 673 486 720 498 q 747 450 716 473 q 795 394 777 426 q 818 323 813 362 q 814 243 823 285 z "},"4":{"ha":831,"x_min":106,"x_max":968,"o":"m 624 0 l 660 170 l 106 170 l 225 729 l 364 729 l 296 412 l 711 412 l 831 972 l 968 972 l 762 0 l 624 0 z "},"5":{"ha":831,"x_min":69,"x_max":899,"o":"m 814 243 q 774 150 804 193 q 696 72 744 108 q 485 0 599 0 l 69 0 l 121 243 l 501 243 q 543 250 522 243 q 581 270 564 258 q 609 299 597 283 q 625 335 621 316 q 625 370 629 353 q 608 398 620 386 q 578 418 596 410 q 539 425 561 425 l 160 425 l 277 972 l 899 972 l 848 729 l 364 729 l 325 547 l 602 547 q 703 529 659 547 q 782 475 747 511 q 827 304 847 404 l 814 243 z "},"6":{"ha":831,"x_min":100,"x_max":899,"o":"m 694 335 q 693 370 698 353 q 676 398 688 386 q 648 418 665 410 q 610 425 631 425 l 401 425 q 359 418 380 425 q 322 398 339 410 q 294 370 306 386 q 278 335 282 353 q 279 299 274 316 q 296 270 284 283 q 325 250 308 258 q 364 243 342 243 l 572 243 q 614 250 593 243 q 651 270 634 258 q 679 299 667 283 q 694 335 691 316 m 814 243 q 694 71 793 141 q 485 0 602 0 l 346 0 q 167 72 231 0 q 121 243 100 142 l 225 729 q 343 901 243 831 q 553 972 435 972 l 899 972 l 848 729 l 501 729 q 444 720 471 729 q 395 694 417 710 q 357 655 373 677 q 336 607 342 633 l 304 450 q 321 488 309 470 q 351 518 333 505 q 390 539 368 532 q 435 547 412 547 l 602 547 q 703 529 659 547 q 782 475 747 511 q 827 304 847 404 l 814 243 z "},"7":{"ha":831,"x_min":69,"x_max":968,"o":"m 264 0 l 69 0 l 724 729 l 225 729 l 277 972 l 968 972 l 918 729 l 264 0 z "},"8":{"ha":831,"x_min":111,"x_max":928,"o":"m 694 335 q 693 370 698 353 q 676 398 688 386 q 648 418 665 410 q 610 425 631 425 l 401 425 q 359 418 380 425 q 322 398 339 410 q 294 370 306 386 q 278 335 282 353 q 279 299 274 316 q 296 270 284 283 q 325 250 308 258 q 364 243 342 243 l 572 243 q 614 250 593 243 q 651 270 634 258 q 679 299 667 283 q 694 335 691 316 m 760 637 q 759 673 764 656 q 743 702 754 690 q 713 722 731 715 q 675 729 696 729 l 467 729 q 425 722 446 729 q 388 702 405 715 q 360 673 372 690 q 345 637 348 656 q 345 602 340 618 q 361 574 350 586 q 390 554 373 562 q 428 547 407 547 l 636 547 q 678 554 657 547 q 715 574 699 562 q 744 602 732 586 q 760 637 755 618 m 814 243 q 694 71 793 141 q 485 0 602 0 l 346 0 q 165 71 230 0 q 121 149 132 106 q 121 243 111 192 l 129 279 q 304 486 159 415 q 216 693 188 556 l 225 729 q 343 901 243 831 q 553 972 435 972 l 692 972 q 872 901 810 972 q 917 823 906 866 q 918 729 928 781 l 908 693 q 733 486 880 556 q 821 279 850 415 l 814 243 z "},"9":{"ha":831,"x_min":139,"x_max":937,"o":"m 760 637 q 759 673 764 656 q 743 702 754 690 q 713 722 731 715 q 675 729 696 729 l 467 729 q 425 722 446 729 q 388 702 405 715 q 360 673 372 690 q 345 637 348 656 q 345 602 340 618 q 361 574 350 586 q 390 554 373 562 q 428 547 407 547 l 636 547 q 678 554 657 547 q 715 574 699 562 q 744 602 732 586 q 760 637 755 618 m 814 243 q 694 71 793 141 q 485 0 602 0 l 139 0 l 191 243 l 538 243 q 594 252 567 243 q 643 278 621 262 q 681 316 665 294 q 701 364 696 338 l 733 522 q 718 485 730 503 q 687 454 705 467 q 648 433 669 441 q 603 425 626 425 l 436 425 q 334 444 378 425 q 257 497 290 462 q 211 668 191 568 l 225 729 q 343 901 243 831 q 553 972 435 972 l 692 972 q 872 900 805 972 q 918 729 937 829 l 814 243 z "}," ":{"ha":624,"x_min":0,"x_max":0,"o":""},"!":{"ha":334,"x_min":69,"x_max":471,"o":"m 69 0 l 106 170 l 300 170 l 264 0 l 69 0 m 269 292 l 187 292 l 277 972 l 471 972 l 269 292 z "},"\"":{"ha":636,"x_min":272,"x_max":787,"o":"m 354 693 l 272 693 l 289 1034 l 484 1034 l 354 693 m 660 693 l 576 693 l 595 1034 l 787 1034 l 660 693 z "},"#":{"ha":860,"x_min":172,"x_max":966,"o":"m 510 729 l 463 583 l 629 583 l 675 729 l 510 729 m 711 486 l 665 340 l 555 340 l 600 486 l 433 486 l 389 340 l 278 340 l 322 486 l 172 486 l 193 583 l 353 583 l 399 729 l 225 729 l 245 827 l 431 827 l 473 972 l 586 972 l 541 827 l 707 827 l 751 972 l 863 972 l 818 827 l 966 827 l 946 729 l 787 729 l 741 583 l 914 583 l 893 486 l 711 486 z "},"$":{"ha":831,"x_min":94,"x_max":968,"o":"m 840 364 q 799 271 829 313 q 722 193 769 229 q 621 139 673 157 q 510 121 568 121 l 485 0 l 346 0 l 372 121 l 94 121 l 147 364 l 562 364 q 589 369 576 364 q 614 383 603 374 q 634 402 626 391 q 644 425 642 413 q 644 449 647 437 q 633 468 641 460 q 613 481 625 477 q 587 486 602 486 l 450 486 q 269 558 336 486 q 225 636 237 594 q 225 729 214 679 q 264 822 235 780 q 343 900 294 864 q 443 954 391 936 q 553 972 495 972 l 578 1093 l 717 1093 l 692 972 l 968 972 l 918 729 l 501 729 q 474 724 488 729 q 449 711 460 720 q 430 691 438 703 q 419 668 422 680 q 420 645 416 656 q 431 626 423 634 q 450 612 439 617 q 475 607 461 607 l 614 607 q 794 536 728 607 q 840 364 859 466 z "},"%":{"ha":1482,"x_min":172,"x_max":1527,"o":"m 633 699 q 633 734 637 718 q 616 763 628 751 q 587 783 605 776 q 549 790 570 790 l 444 790 q 402 783 422 790 q 365 763 382 776 q 337 734 349 751 q 321 699 325 718 l 301 607 q 302 572 298 589 q 319 544 307 556 q 347 524 330 531 q 386 517 364 517 l 490 517 q 533 524 513 517 q 570 543 554 530 q 598 571 587 555 q 614 607 610 587 l 633 699 m 1386 364 q 1385 399 1390 382 q 1369 428 1380 416 q 1341 448 1358 441 q 1303 456 1324 456 l 1198 456 q 1156 448 1177 456 q 1119 428 1136 441 q 1090 399 1102 416 q 1075 364 1078 382 l 1055 273 q 1056 238 1051 255 q 1072 209 1061 222 q 1101 189 1084 197 q 1140 182 1118 182 l 1244 182 q 1287 189 1267 182 q 1324 208 1308 196 q 1351 237 1340 220 q 1367 273 1362 254 l 1386 364 m 699 517 q 668 446 690 478 q 610 386 646 414 q 452 335 538 335 l 347 335 q 272 348 304 335 q 212 387 239 361 q 179 446 187 414 q 179 517 172 479 l 237 790 q 267 860 245 828 q 325 918 290 892 q 484 972 399 972 l 587 972 q 724 918 673 972 q 756 860 747 892 q 757 790 766 828 l 699 517 m 672 0 l 879 972 l 1017 972 l 811 0 l 672 0 m 1453 182 q 1362 53 1436 105 q 1206 0 1293 0 l 1101 0 q 966 53 1016 0 q 932 182 916 108 l 990 456 q 1020 525 998 493 q 1079 585 1042 557 q 1238 637 1152 637 l 1341 637 q 1475 585 1426 637 q 1511 456 1527 531 l 1453 182 z "},"&":{"ha":831,"x_min":100,"x_max":968,"o":"m 631 425 l 471 425 q 429 418 449 425 q 392 398 408 410 q 363 370 375 386 q 347 335 351 353 q 349 299 344 316 q 365 270 353 283 q 394 250 377 258 q 432 243 411 243 l 593 243 l 631 425 m 346 0 q 167 72 231 0 q 121 243 100 142 q 151 323 130 285 q 203 394 172 362 q 275 450 235 426 q 364 486 316 473 q 291 523 321 499 q 242 578 260 547 q 220 649 224 610 q 225 729 216 687 q 264 822 235 780 q 343 900 294 864 q 443 954 391 936 q 553 972 495 972 l 968 972 l 918 729 l 536 729 q 495 722 515 729 q 457 702 475 715 q 428 673 440 690 q 412 637 416 656 q 414 602 409 618 q 430 574 418 586 q 459 554 442 562 q 497 547 476 547 l 879 547 l 851 425 l 770 425 l 732 243 l 814 243 l 762 0 l 346 0 z "},"'":{"ha":334,"x_min":272,"x_max":484,"o":"m 354 693 l 272 693 l 289 1034 l 484 1034 l 354 693 z "},"(":{"ha":485,"x_min":76,"x_max":578,"o":"m 321 -122 q 218 -104 263 -122 q 140 -50 174 -85 q 94 121 76 20 l 250 850 q 290 944 260 901 q 368 1022 320 987 q 578 1093 464 1093 l 528 850 q 472 840 499 850 q 422 814 444 831 q 384 776 399 798 q 364 729 369 754 l 260 243 q 260 196 254 218 q 282 157 267 174 q 320 131 297 140 q 372 121 344 121 l 321 -122 z "},")":{"ha":485,"x_min":113,"x_max":616,"o":"m 441 121 q 401 28 431 71 q 323 -50 372 -14 q 222 -104 275 -85 q 113 -122 170 -122 l 164 121 q 220 131 193 121 q 270 157 248 140 q 308 196 292 174 q 329 243 323 218 l 432 729 q 431 776 437 754 q 409 814 425 798 q 371 840 394 831 q 319 850 348 850 l 371 1093 q 551 1022 485 1093 q 597 850 616 953 l 441 121 z "},"*":{"ha":673,"x_min":208,"x_max":775,"o":"m 668 566 l 529 646 l 496 486 l 385 486 l 419 646 l 245 566 l 208 650 l 382 729 l 240 808 l 315 893 l 454 812 l 489 972 l 599 972 l 566 812 l 737 893 l 775 808 l 604 729 l 743 650 l 668 566 z "},"+":{"ha":693,"x_min":150,"x_max":724,"o":"m 482 376 l 441 182 l 329 182 l 371 376 l 150 376 l 170 473 l 392 473 l 432 668 l 545 668 l 503 473 l 724 473 l 704 376 l 482 376 z "},",":{"ha":334,"x_min":89,"x_max":300,"o":"m 171 -171 l 89 -171 l 106 170 l 300 170 l 171 -171 z "},"-":{"ha":693,"x_min":150,"x_max":724,"o":"m 150 376 l 170 473 l 724 473 l 704 376 l 150 376 z "},"­":{"ha":693,"x_min":150,"x_max":724,"o":"m 150 376 l 170 473 l 724 473 l 704 376 l 150 376 z "},".":{"ha":334,"x_min":69,"x_max":300,"o":"m 69 0 l 106 170 l 300 170 l 264 0 l 69 0 z "},"/":{"ha":673,"x_min":22,"x_max":859,"o":"m 143 -106 l 22 -64 l 737 1078 l 859 1036 l 143 -106 z "},":":{"ha":334,"x_min":69,"x_max":403,"o":"m 69 0 l 106 170 l 300 170 l 264 0 l 69 0 m 172 486 l 208 656 l 403 656 l 367 486 l 172 486 z "},";":{"ha":334,"x_min":89,"x_max":403,"o":"m 171 -171 l 89 -171 l 106 170 l 300 170 l 171 -171 m 172 486 l 208 656 l 403 656 l 367 486 l 172 486 z "},";":{"ha":334,"x_min":89,"x_max":403,"o":"m 171 -171 l 89 -171 l 106 170 l 300 170 l 171 -171 m 172 486 l 208 656 l 403 656 l 367 486 l 172 486 z "},"<":{"ha":664,"x_min":150,"x_max":733,"o":"m 558 111 l 150 376 l 170 473 l 690 739 l 733 657 l 277 425 l 636 193 l 558 111 z "},"=":{"ha":693,"x_min":126,"x_max":747,"o":"m 126 267 l 147 364 l 701 364 l 681 267 l 126 267 m 172 486 l 193 583 l 747 583 l 726 486 l 172 486 z "},">":{"ha":664,"x_min":111,"x_max":694,"o":"m 154 111 l 111 193 l 567 425 l 208 657 l 286 739 l 694 473 l 675 376 l 154 111 z "},"?":{"ha":749,"x_min":139,"x_max":845,"o":"m 139 0 l 175 170 l 370 170 l 334 0 l 139 0 m 835 729 q 715 558 814 629 q 615 504 667 522 q 505 486 562 486 l 395 486 l 339 292 l 257 292 l 296 607 l 530 607 q 558 612 545 607 q 584 626 572 617 q 603 645 595 634 q 614 668 611 656 q 613 691 616 680 q 602 711 610 703 q 583 724 595 720 q 558 729 572 729 l 225 729 l 277 972 l 608 972 q 789 900 722 972 q 833 822 821 864 q 835 729 845 780 z "},"@":{"ha":1247,"x_min":47,"x_max":1352,"o":"m 863 374 q 850 433 871 410 q 787 456 829 456 l 685 456 q 642 448 663 456 q 602 428 620 441 q 570 399 583 416 q 550 364 556 382 q 529 295 535 320 q 521 267 522 271 q 520 233 517 248 q 535 206 524 218 q 561 188 545 195 q 597 182 577 182 l 701 182 q 744 189 722 182 q 783 209 765 197 q 814 238 801 222 q 833 273 827 255 q 854 343 847 319 q 863 374 861 368 m 1229 243 q 1112 71 1208 142 q 900 0 1016 0 l 749 0 l 766 61 q 603 -1 746 -1 l 570 -1 q 553 0 561 0 q 541 0 546 0 q 469 12 500 0 q 412 47 437 24 q 383 167 369 97 q 385 172 383 168 q 390 182 386 176 l 476 456 q 512 525 487 493 q 575 585 537 557 q 741 637 656 637 l 843 637 q 968 590 927 637 q 1000 537 992 567 q 1000 472 1008 508 q 996 456 998 469 l 879 85 l 960 85 q 1017 94 989 85 q 1066 120 1044 104 q 1103 159 1088 136 q 1124 207 1118 181 l 1243 765 q 1242 812 1249 790 q 1221 851 1236 835 q 1182 878 1206 868 q 1131 888 1159 888 l 493 888 q 437 878 465 888 q 388 851 410 868 q 351 812 366 835 q 329 765 335 790 l 160 -36 q 160 -83 154 -61 q 181 -122 166 -106 q 219 -149 196 -139 q 271 -158 242 -158 l 1006 -158 l 986 -243 l 294 -243 q 192 -225 237 -243 q 114 -171 146 -208 q 69 0 47 -100 l 225 729 q 343 900 243 829 q 442 954 389 936 q 553 972 495 972 l 1107 972 q 1287 900 1220 972 q 1333 729 1352 829 l 1229 243 z "},"A":{"ha":831,"x_min":69,"x_max":928,"o":"m 753 607 q 752 655 758 633 q 731 694 746 677 q 693 720 716 710 q 640 729 670 729 l 501 729 q 446 720 473 729 q 396 693 418 710 q 358 654 374 677 q 336 607 342 632 l 286 364 l 701 364 l 753 607 m 624 0 l 675 243 l 260 243 l 208 0 l 69 0 l 225 729 q 264 822 235 780 q 343 900 294 864 q 443 954 391 936 q 553 972 495 972 l 692 972 q 872 901 810 972 q 917 823 906 866 q 918 729 928 781 l 762 0 l 624 0 z "},"B":{"ha":831,"x_min":69,"x_max":937,"o":"m 625 335 q 625 370 629 353 q 608 398 620 386 q 578 418 596 410 q 539 425 561 425 l 297 425 l 260 243 l 501 243 q 543 250 522 243 q 581 270 564 258 q 609 299 597 283 q 625 335 621 316 m 690 637 q 689 673 694 656 q 673 702 684 690 q 644 722 661 715 q 606 729 627 729 l 364 729 l 325 547 l 567 547 q 608 554 588 547 q 646 574 629 562 q 674 602 663 586 q 690 637 686 618 m 814 243 q 774 150 804 193 q 696 72 744 108 q 485 0 599 0 l 69 0 l 277 972 l 692 972 q 872 900 805 972 q 918 729 937 829 l 914 717 q 885 642 905 678 q 831 575 864 606 q 758 520 797 543 q 673 486 720 498 q 747 450 716 473 q 795 394 777 426 q 818 323 813 362 q 814 243 823 285 z "},"C":{"ha":831,"x_min":100,"x_max":968,"o":"m 346 0 q 167 72 231 0 q 121 243 100 142 l 225 729 q 264 822 235 780 q 343 900 294 864 q 443 954 391 936 q 553 972 495 972 l 968 972 l 918 729 l 501 729 q 446 720 473 729 q 396 693 418 710 q 358 654 374 677 q 336 607 342 632 l 286 364 q 286 317 280 339 q 308 278 292 295 q 347 252 323 262 q 399 243 370 243 l 814 243 l 762 0 l 346 0 z "},"D":{"ha":831,"x_min":69,"x_max":937,"o":"m 753 607 q 751 654 758 632 q 730 693 745 677 q 692 720 715 710 q 640 729 669 729 l 364 729 l 260 243 l 538 243 q 594 252 567 243 q 643 278 621 262 q 681 316 665 294 q 701 364 696 338 l 753 607 m 814 243 q 694 71 793 141 q 485 0 602 0 l 69 0 l 277 972 l 692 972 q 872 900 805 972 q 918 729 937 829 l 814 243 z "},"E":{"ha":693,"x_min":111,"x_max":831,"o":"m 346 0 q 165 71 230 0 q 121 149 132 106 q 121 243 111 192 l 277 972 l 831 972 l 779 729 l 364 729 l 325 547 l 602 547 l 575 425 l 297 425 l 286 364 q 286 316 280 338 q 307 278 292 294 q 346 252 322 262 q 399 243 369 243 l 675 243 l 624 0 l 346 0 z "},"F":{"ha":657,"x_min":69,"x_max":831,"o":"m 501 729 q 444 720 471 729 q 395 694 417 710 q 357 655 373 677 q 336 607 342 633 l 325 547 l 602 547 l 575 425 l 297 425 l 208 0 l 69 0 l 225 729 q 343 901 243 831 q 553 972 435 972 l 831 972 l 779 729 l 501 729 z "},"G":{"ha":831,"x_min":100,"x_max":968,"o":"m 501 729 q 446 720 473 729 q 396 693 418 710 q 358 654 374 677 q 336 607 342 632 l 286 364 q 286 317 280 339 q 308 278 292 295 q 347 252 323 262 q 399 243 370 243 l 663 243 l 700 425 l 505 425 l 532 547 l 865 547 l 749 0 l 346 0 q 167 72 231 0 q 121 243 100 142 l 225 729 q 264 822 235 780 q 343 900 294 864 q 443 954 391 936 q 553 972 495 972 l 968 972 l 918 729 l 501 729 z "},"H":{"ha":831,"x_min":69,"x_max":968,"o":"m 624 0 l 701 364 l 286 364 l 208 0 l 69 0 l 277 972 l 414 972 l 336 607 l 753 607 l 831 972 l 968 972 l 762 0 l 624 0 z "},"I":{"ha":415,"x_min":69,"x_max":553,"o":"m 69 0 l 121 243 l 191 243 l 294 729 l 225 729 l 277 972 l 553 972 l 501 729 l 432 729 l 329 243 l 399 243 l 346 0 l 69 0 z "},"J":{"ha":554,"x_min":69,"x_max":692,"o":"m 538 243 q 497 149 526 192 q 418 71 467 106 q 208 0 323 0 l 69 0 l 121 243 l 260 243 q 317 252 290 243 q 366 278 345 262 q 403 316 388 294 q 424 364 418 338 l 501 729 l 225 729 l 277 972 l 692 972 l 538 243 z "},"K":{"ha":831,"x_min":69,"x_max":968,"o":"m 624 0 l 675 243 q 675 291 681 269 q 654 330 669 313 q 615 355 639 346 q 562 364 592 364 l 286 364 l 208 0 l 69 0 l 277 972 l 414 972 l 336 607 l 614 607 q 671 616 644 607 q 720 642 698 626 q 758 681 742 659 q 779 729 773 703 l 831 972 l 968 972 l 911 704 q 886 636 903 669 q 843 575 869 604 q 784 524 817 547 q 713 486 751 501 q 769 448 745 471 q 806 397 792 425 q 823 335 819 368 q 819 267 827 302 l 762 0 l 624 0 z "},"L":{"ha":693,"x_min":111,"x_max":675,"o":"m 346 0 q 165 71 230 0 q 121 149 132 106 q 121 243 111 192 l 277 972 l 414 972 l 286 364 q 286 316 280 338 q 307 278 292 294 q 346 252 322 262 q 399 243 369 243 l 675 243 l 624 0 l 346 0 z "},"M":{"ha":1385,"x_min":69,"x_max":1491,"o":"m 1178 0 l 1307 607 q 1306 654 1312 632 q 1285 693 1300 677 q 1246 720 1270 710 q 1194 729 1223 729 l 1055 729 q 998 720 1025 729 q 949 694 971 710 q 911 655 927 677 q 890 607 896 633 l 762 0 l 624 0 l 753 607 q 752 655 758 633 q 731 694 746 677 q 693 720 716 710 q 640 729 670 729 l 501 729 q 446 720 473 729 q 396 693 418 710 q 358 654 374 677 q 336 607 342 632 l 208 0 l 69 0 l 225 729 q 264 822 235 780 q 343 900 294 864 q 443 954 391 936 q 553 972 495 972 l 636 972 q 720 961 681 972 q 790 928 760 949 q 839 876 820 906 q 864 807 859 845 q 918 876 886 845 q 990 928 951 906 q 1074 961 1029 949 q 1162 972 1118 972 l 1246 972 q 1426 900 1359 972 q 1472 729 1491 829 l 1317 0 l 1178 0 z "},"N":{"ha":831,"x_min":69,"x_max":928,"o":"m 624 0 l 753 607 q 752 655 758 633 q 731 694 746 677 q 693 720 716 710 q 640 729 670 729 l 501 729 q 446 720 473 729 q 396 693 418 710 q 358 654 374 677 q 336 607 342 632 l 208 0 l 69 0 l 225 729 q 343 900 243 829 q 442 954 389 936 q 553 972 495 972 l 692 972 q 872 901 810 972 q 917 823 906 866 q 918 729 928 781 l 762 0 l 624 0 z "},"O":{"ha":831,"x_min":111,"x_max":937,"o":"m 753 607 q 751 654 758 632 q 730 693 745 677 q 692 720 715 710 q 640 729 669 729 l 501 729 q 446 720 473 729 q 396 693 418 710 q 358 654 374 677 q 336 607 342 632 l 286 364 q 286 317 280 339 q 308 278 292 295 q 347 252 323 262 q 399 243 370 243 l 538 243 q 594 252 567 243 q 643 278 621 262 q 681 316 665 294 q 701 364 696 338 l 753 607 m 814 243 q 694 71 793 141 q 485 0 602 0 l 346 0 q 165 71 230 0 q 121 150 132 106 q 121 243 111 193 l 225 729 q 343 900 243 829 q 442 954 389 936 q 553 972 495 972 l 692 972 q 872 900 805 972 q 918 729 937 829 l 814 243 z "},"P":{"ha":831,"x_min":69,"x_max":937,"o":"m 690 637 q 689 673 694 656 q 673 702 684 690 q 644 722 661 715 q 606 729 627 729 l 364 729 l 325 547 l 567 547 q 608 554 588 547 q 646 574 629 562 q 674 602 663 586 q 690 637 686 618 m 904 668 q 786 497 882 568 q 685 444 738 462 q 575 425 633 425 l 297 425 l 208 0 l 69 0 l 277 972 l 692 972 q 872 900 805 972 q 918 729 937 829 l 904 668 z "},"Q":{"ha":831,"x_min":100,"x_max":937,"o":"m 753 607 q 751 654 758 632 q 730 693 745 677 q 692 720 715 710 q 640 729 669 729 l 501 729 q 446 720 473 729 q 396 693 418 710 q 358 654 374 677 q 336 607 342 632 l 286 364 q 286 317 280 339 q 308 278 292 295 q 347 252 323 262 q 399 243 370 243 l 538 243 q 594 252 567 243 q 643 278 621 262 q 681 316 665 294 q 701 364 696 338 l 753 607 m 546 -366 q 364 -294 428 -366 q 321 -122 298 -224 l 346 0 q 165 71 232 0 q 121 243 100 142 l 225 729 q 264 822 235 780 q 343 900 294 864 q 443 954 391 936 q 553 972 495 972 l 692 972 q 872 900 805 972 q 918 729 937 829 l 814 243 q 694 71 793 141 q 485 0 602 0 q 486 -48 479 -26 q 507 -87 492 -71 q 545 -113 522 -103 q 597 -122 568 -122 l 736 -122 l 685 -366 l 546 -366 z "},"R":{"ha":831,"x_min":69,"x_max":937,"o":"m 690 637 q 689 673 694 656 q 673 702 684 690 q 644 722 661 715 q 606 729 627 729 l 364 729 l 325 547 l 567 547 q 608 554 588 547 q 646 574 629 562 q 674 602 663 586 q 690 637 686 618 m 624 0 l 677 256 q 680 319 685 290 q 656 374 675 349 q 607 412 637 399 q 539 425 578 425 l 297 425 l 208 0 l 69 0 l 277 972 l 692 972 q 872 900 805 972 q 918 729 937 829 q 887 649 909 687 q 834 578 866 610 q 762 523 803 547 q 673 486 722 499 q 748 451 717 473 q 797 400 779 429 q 820 334 815 370 q 817 256 825 297 l 762 0 l 624 0 z "},"S":{"ha":831,"x_min":69,"x_max":968,"o":"m 814 243 q 774 150 804 193 q 696 72 744 108 q 485 0 599 0 l 69 0 l 121 243 l 501 243 q 543 250 522 243 q 581 270 564 258 q 609 299 597 283 q 625 335 621 316 q 625 370 629 353 q 608 398 620 386 q 578 418 596 410 q 539 425 561 425 l 436 425 q 334 444 378 425 q 257 497 290 462 q 211 668 191 568 l 225 729 q 264 822 235 780 q 343 900 294 864 q 443 954 391 936 q 553 972 495 972 l 968 972 l 918 729 l 536 729 q 495 722 515 729 q 457 702 475 715 q 428 673 440 690 q 412 637 416 656 q 414 602 409 618 q 430 574 418 586 q 459 554 442 562 q 497 547 476 547 l 602 547 q 703 529 659 547 q 782 475 747 511 q 827 304 847 404 l 814 243 z "},"T":{"ha":762,"x_min":191,"x_max":933,"o":"m 606 729 l 450 0 l 311 0 l 467 729 l 191 729 l 241 972 l 933 972 l 882 729 l 606 729 z "},"U":{"ha":831,"x_min":111,"x_max":968,"o":"m 814 243 q 694 71 793 141 q 485 0 602 0 l 346 0 q 165 71 230 0 q 121 150 132 106 q 121 243 111 193 l 277 972 l 414 972 l 286 364 q 286 317 280 339 q 308 278 292 295 q 347 252 323 262 q 399 243 370 243 l 538 243 q 594 252 567 243 q 643 278 621 262 q 681 316 665 294 q 701 364 696 338 l 831 972 l 968 972 l 814 243 z "},"V":{"ha":831,"x_min":69,"x_max":968,"o":"m 814 243 q 694 71 793 141 q 485 0 602 0 l 69 0 l 277 972 l 414 972 l 260 243 l 538 243 q 594 252 567 243 q 643 278 621 262 q 681 316 665 294 q 701 364 696 338 l 831 972 l 968 972 l 814 243 z "},"W":{"ha":1385,"x_min":100,"x_max":1522,"o":"m 1368 243 q 1328 150 1358 193 q 1250 72 1298 108 q 1039 0 1153 0 l 957 0 q 872 12 911 0 q 803 44 833 23 q 753 97 772 66 q 728 165 734 127 q 673 97 706 127 q 602 44 641 66 q 518 12 562 23 q 429 0 474 0 l 346 0 q 167 72 231 0 q 121 243 100 142 l 277 972 l 414 972 l 286 364 q 286 317 280 339 q 308 278 292 295 q 347 252 323 262 q 399 243 370 243 l 538 243 q 594 252 567 243 q 643 278 621 262 q 681 316 665 294 q 701 364 696 338 l 831 972 l 968 972 l 840 364 q 841 316 835 338 q 861 278 846 294 q 900 252 876 262 q 953 243 923 243 l 1092 243 q 1147 252 1120 243 q 1197 278 1175 262 q 1234 317 1219 295 q 1255 364 1250 339 l 1385 972 l 1522 972 l 1368 243 z "},"X":{"ha":831,"x_min":69,"x_max":968,"o":"m 679 0 q 596 12 633 0 q 528 46 559 23 q 477 100 496 70 q 452 168 458 130 q 398 100 430 130 q 323 46 366 70 q 151 0 241 0 l 69 0 l 121 243 l 260 243 q 316 252 288 243 q 365 278 343 262 q 403 317 387 295 q 424 364 418 339 l 475 607 q 475 654 481 632 q 454 693 469 677 q 416 720 439 710 q 364 729 393 729 l 225 729 l 277 972 l 358 972 q 510 925 450 972 q 587 804 573 878 q 640 872 608 842 q 714 925 672 902 q 798 961 756 949 q 886 972 840 972 l 968 972 l 918 729 l 779 729 q 723 720 751 729 q 673 693 696 710 q 635 654 650 677 q 614 607 619 632 l 562 364 q 563 317 557 339 q 585 278 570 295 q 623 252 600 262 q 675 243 646 243 l 814 243 l 762 0 l 679 0 z "},"Y":{"ha":831,"x_min":163,"x_max":968,"o":"m 876 534 q 757 363 854 433 q 547 292 663 292 l 485 0 l 346 0 l 408 292 q 228 363 294 292 q 183 534 163 433 l 277 972 l 414 972 l 347 656 q 348 609 342 631 q 370 570 355 587 q 409 544 385 553 q 461 534 432 534 l 599 534 q 655 544 628 534 q 705 570 683 553 q 742 608 727 586 q 762 656 757 630 l 831 972 l 968 972 l 876 534 z "},"Z":{"ha":831,"x_min":69,"x_max":968,"o":"m 69 0 l 121 243 l 710 729 l 225 729 l 277 972 l 968 972 l 918 729 l 329 243 l 814 243 l 762 0 l 69 0 z "},"[":{"ha":485,"x_min":43,"x_max":578,"o":"m 43 -122 l 301 1093 l 578 1093 l 528 850 l 389 850 l 233 121 l 372 121 l 321 -122 l 43 -122 z "},"\\":{"ha":673,"x_min":256,"x_max":625,"o":"m 486 -106 l 256 1036 l 395 1078 l 625 -64 l 486 -106 z "},"]":{"ha":485,"x_min":113,"x_max":647,"o":"m 113 -122 l 164 121 l 302 121 l 458 850 l 319 850 l 371 1093 l 647 1093 l 390 -122 l 113 -122 z "},"^":{"ha":701,"x_min":180,"x_max":743,"o":"m 635 489 l 529 842 l 275 489 l 180 529 l 501 972 l 612 972 l 743 529 l 635 489 z "},"_":{"ha":656,"x_min":0,"x_max":656,"o":"m 0 0 l 0 121 l 656 121 l 656 0 l 0 0 z "},"`":{"ha":334,"x_min":277,"x_max":433,"o":"m 350 802 l 277 972 l 386 972 l 433 802 l 350 802 z "},"a":{"ha":831,"x_min":100,"x_max":913,"o":"m 726 486 q 727 534 732 512 q 706 572 721 556 q 667 598 690 589 q 614 607 644 607 l 475 607 q 419 597 446 607 q 370 572 392 588 q 332 533 347 555 q 311 486 316 511 l 286 364 q 286 317 280 339 q 308 278 292 295 q 347 252 323 262 q 399 243 370 243 l 538 243 q 593 252 566 243 q 643 278 621 262 q 680 317 665 295 q 701 364 696 339 l 726 486 m 624 0 l 640 82 q 620 47 636 62 q 578 20 604 31 q 533 4 556 9 q 485 0 510 0 l 346 0 q 167 72 231 0 q 121 243 100 142 l 199 607 q 239 701 209 658 q 315 779 269 743 q 528 850 414 850 l 665 850 q 769 833 724 850 q 846 781 814 817 q 890 607 913 709 l 762 0 l 624 0 z "},"b":{"ha":831,"x_min":111,"x_max":902,"o":"m 726 486 q 726 533 732 511 q 705 572 720 555 q 666 597 689 588 q 614 607 642 607 l 475 607 q 419 597 446 607 q 370 572 392 588 q 332 533 347 555 q 311 486 316 511 l 286 364 q 286 316 280 338 q 307 278 292 294 q 346 252 322 262 q 399 243 369 243 l 538 243 q 593 252 566 243 q 643 278 621 262 q 680 317 665 295 q 701 364 696 339 l 726 486 m 814 243 q 774 150 804 193 q 696 72 744 108 q 485 0 599 0 l 346 0 q 165 71 230 0 q 121 149 132 106 q 121 243 111 192 l 289 1034 l 428 1034 l 372 770 q 392 804 376 788 q 433 831 408 819 q 479 845 456 841 q 528 850 503 850 l 665 850 q 768 832 724 850 q 846 779 812 815 q 890 701 878 743 q 890 607 902 658 l 814 243 z "},"c":{"ha":831,"x_min":100,"x_max":943,"o":"m 346 0 q 167 72 231 0 q 121 243 100 142 l 199 607 q 239 701 209 658 q 315 779 269 743 q 528 850 414 850 l 943 850 l 890 607 l 475 607 q 419 597 446 607 q 370 572 392 588 q 332 533 347 555 q 311 486 316 511 l 286 364 q 286 317 280 339 q 308 278 292 295 q 347 252 323 262 q 399 243 370 243 l 814 243 l 762 0 l 346 0 z "},"d":{"ha":831,"x_min":100,"x_max":982,"o":"m 726 486 q 726 533 732 511 q 705 572 720 555 q 666 597 689 588 q 614 607 642 607 l 475 607 q 419 597 446 607 q 370 572 392 588 q 332 533 347 555 q 311 486 316 511 l 286 364 q 286 317 280 339 q 308 278 292 295 q 347 252 323 262 q 399 243 370 243 l 538 243 q 594 252 567 243 q 643 278 621 262 q 681 316 665 294 q 701 364 696 338 l 726 486 m 814 243 q 694 71 793 141 q 485 0 602 0 l 346 0 q 167 72 231 0 q 121 243 100 142 l 199 607 q 239 701 209 658 q 315 779 269 743 q 528 850 414 850 l 665 850 q 711 845 690 850 q 750 831 732 841 q 787 770 793 808 l 843 1034 l 982 1034 l 814 243 z "},"e":{"ha":831,"x_min":100,"x_max":943,"o":"m 346 0 q 167 72 231 0 q 121 243 100 142 l 199 607 q 239 701 209 658 q 315 779 269 743 q 528 850 414 850 l 943 850 l 890 607 l 475 607 q 419 597 446 607 q 370 572 392 588 q 332 533 347 555 q 311 486 316 511 l 726 486 l 701 364 l 286 364 q 286 317 280 339 q 308 278 292 295 q 347 252 323 262 q 399 243 370 243 l 814 243 l 762 0 l 346 0 z "},"f":{"ha":657,"x_min":69,"x_max":843,"o":"m 514 790 q 457 781 484 790 q 408 755 429 771 q 371 716 386 739 q 350 668 355 694 l 325 547 l 602 547 l 575 425 l 297 425 l 208 0 l 69 0 l 237 790 q 354 962 258 892 q 567 1034 450 1034 l 843 1034 l 791 790 l 514 790 z "},"g":{"ha":831,"x_min":100,"x_max":913,"o":"m 726 486 q 726 533 732 511 q 705 572 720 555 q 666 597 689 588 q 614 607 642 607 l 475 607 q 419 597 446 607 q 370 572 392 588 q 332 533 347 555 q 311 486 316 511 l 286 364 q 286 317 280 339 q 308 278 292 295 q 347 252 323 262 q 399 243 370 243 l 538 243 q 594 252 567 243 q 643 278 621 262 q 681 316 665 294 q 701 364 696 338 l 726 486 m 736 -122 q 618 -294 715 -225 q 407 -366 524 -366 l 268 -366 l 321 -122 l 460 -122 q 517 -113 490 -122 q 566 -87 544 -103 q 603 -48 587 -71 q 624 0 618 -26 l 640 82 q 620 47 636 62 q 578 20 604 31 q 533 4 556 9 q 485 0 510 0 l 346 0 q 167 72 231 0 q 121 243 100 142 l 199 607 q 239 701 209 658 q 315 779 269 743 q 528 850 414 850 l 665 850 q 769 833 724 850 q 846 781 814 817 q 890 607 913 709 l 736 -122 z "},"h":{"ha":831,"x_min":69,"x_max":902,"o":"m 624 0 l 726 486 q 726 533 732 511 q 705 572 720 555 q 666 597 689 588 q 614 607 642 607 l 475 607 q 419 597 446 607 q 370 572 392 588 q 332 533 347 555 q 311 486 316 511 l 208 0 l 69 0 l 289 1034 l 428 1034 l 372 770 q 433 831 378 807 q 479 845 456 841 q 528 850 503 850 l 665 850 q 768 832 724 850 q 846 779 812 815 q 890 701 878 743 q 890 607 902 658 l 762 0 l 624 0 z "},"i":{"ha":277,"x_min":69,"x_max":389,"o":"m 69 0 l 250 850 l 389 850 l 208 0 l 69 0 z "},"j":{"ha":554,"x_min":-8,"x_max":665,"o":"m 460 -122 q 342 -294 436 -225 q 131 -366 246 -366 l -8 -366 l 43 -122 l 182 -122 q 239 -113 212 -122 q 288 -87 267 -103 q 325 -48 310 -71 q 346 0 340 -26 l 475 607 l 199 607 l 250 850 l 665 850 l 460 -122 z "},"k":{"ha":831,"x_min":69,"x_max":943,"o":"m 624 0 l 663 182 q 662 231 667 208 q 641 269 656 253 q 602 295 625 286 q 549 304 578 304 l 272 304 l 208 0 l 69 0 l 289 1034 l 428 1034 l 325 547 l 602 547 q 659 556 631 547 q 708 582 686 566 q 745 620 730 598 q 765 668 760 642 l 804 850 l 943 850 l 899 644 q 873 576 891 609 q 830 514 856 543 q 770 463 804 486 q 699 425 737 440 q 755 387 731 410 q 792 336 779 364 q 810 274 806 307 q 806 207 814 241 l 762 0 l 624 0 z "},"l":{"ha":380,"x_min":111,"x_max":428,"o":"m 346 0 q 165 71 230 0 q 121 149 132 106 q 121 243 111 192 l 289 1034 l 428 1034 l 286 364 q 286 316 280 338 q 307 278 292 294 q 346 252 322 262 q 399 243 369 243 l 346 0 z "},"m":{"ha":1385,"x_min":69,"x_max":1456,"o":"m 1178 0 l 1280 486 q 1280 533 1286 511 q 1259 572 1274 555 q 1220 597 1243 588 q 1168 607 1196 607 l 1029 607 q 972 598 1000 607 q 923 572 945 589 q 885 534 901 556 q 865 486 870 512 l 762 0 l 624 0 l 726 486 q 727 534 732 512 q 706 572 721 556 q 667 598 690 589 q 614 607 644 607 l 475 607 q 419 597 446 607 q 370 572 392 588 q 332 533 347 555 q 311 486 316 511 l 208 0 l 69 0 l 199 607 q 239 701 209 658 q 315 779 269 743 q 528 850 414 850 l 610 850 q 694 838 655 850 q 764 805 734 827 q 813 753 794 784 q 839 685 833 723 q 893 753 861 723 q 965 805 926 784 q 1048 838 1004 827 q 1137 850 1092 850 l 1219 850 q 1322 832 1278 850 q 1400 779 1367 815 q 1444 701 1432 743 q 1444 607 1456 658 l 1317 0 l 1178 0 z "},"n":{"ha":831,"x_min":69,"x_max":913,"o":"m 624 0 l 726 486 q 727 534 732 512 q 706 572 721 556 q 667 598 690 589 q 614 607 644 607 l 475 607 q 419 597 446 607 q 370 572 392 588 q 332 533 347 555 q 311 486 316 511 l 208 0 l 69 0 l 199 607 q 315 779 219 707 q 417 832 363 815 q 528 850 470 850 l 665 850 q 769 833 724 850 q 846 781 814 817 q 890 607 913 709 l 762 0 l 624 0 z "},"o":{"ha":831,"x_min":111,"x_max":902,"o":"m 726 486 q 726 533 732 511 q 705 572 720 555 q 666 597 689 588 q 614 607 642 607 l 475 607 q 419 597 446 607 q 370 572 392 588 q 332 533 347 555 q 311 486 316 511 l 286 364 q 286 317 280 339 q 308 278 292 295 q 347 252 323 262 q 399 243 370 243 l 538 243 q 594 252 567 243 q 643 278 621 262 q 681 316 665 294 q 701 364 696 338 l 726 486 m 814 243 q 694 71 793 141 q 485 0 602 0 l 346 0 q 165 71 230 0 q 121 150 132 106 q 121 243 111 193 l 199 607 q 315 779 219 707 q 417 832 363 815 q 528 850 470 850 l 665 850 q 768 832 724 850 q 846 779 812 815 q 890 701 878 743 q 890 607 902 658 l 814 243 z "},"p":{"ha":831,"x_min":17,"x_max":902,"o":"m 726 486 q 726 533 732 511 q 705 572 720 555 q 666 597 689 588 q 614 607 642 607 l 475 607 q 418 598 445 607 q 369 572 391 589 q 331 534 347 556 q 311 486 316 512 l 286 364 q 286 317 280 339 q 308 278 292 295 q 347 252 323 262 q 399 243 370 243 l 538 243 q 593 252 566 243 q 643 278 621 262 q 680 317 665 295 q 701 364 696 339 l 726 486 m 814 243 q 774 150 804 193 q 696 72 744 108 q 485 0 599 0 l 346 0 q 301 4 322 0 q 261 20 280 9 q 225 82 219 42 l 155 -243 l 17 -243 l 199 607 q 315 781 219 709 q 416 833 363 817 q 528 850 469 850 l 665 850 q 768 832 724 850 q 846 779 812 815 q 890 701 878 743 q 890 607 902 658 l 814 243 z "},"q":{"ha":831,"x_min":100,"x_max":913,"o":"m 726 486 q 727 534 732 512 q 706 572 721 556 q 667 598 690 589 q 614 607 644 607 l 475 607 q 419 597 446 607 q 370 572 392 588 q 332 533 347 555 q 311 486 316 511 l 286 364 q 286 317 280 339 q 308 278 292 295 q 347 252 323 262 q 399 243 370 243 l 538 243 q 593 252 566 243 q 643 278 621 262 q 680 317 665 295 q 701 364 696 339 l 726 486 m 571 -243 l 640 82 q 620 47 636 62 q 578 20 604 31 q 533 4 556 9 q 485 0 510 0 l 346 0 q 167 72 231 0 q 121 243 100 142 l 199 607 q 239 701 209 658 q 315 779 269 743 q 528 850 414 850 l 665 850 q 769 833 724 850 q 846 781 814 817 q 890 607 913 709 l 710 -243 l 571 -243 z "},"r":{"ha":657,"x_min":69,"x_max":804,"o":"m 475 607 q 419 597 446 607 q 370 572 392 588 q 332 533 347 555 q 311 486 316 511 l 208 0 l 69 0 l 250 850 l 389 850 l 372 770 q 392 804 376 788 q 433 831 408 819 q 479 845 456 841 q 528 850 503 850 l 804 850 l 753 607 l 475 607 z "},"s":{"ha":831,"x_min":69,"x_max":943,"o":"m 814 243 q 774 150 804 193 q 696 72 744 108 q 485 0 599 0 l 69 0 l 121 243 l 538 243 q 590 260 567 243 q 618 304 612 278 q 618 328 621 317 q 607 347 615 338 q 588 359 600 355 q 562 364 576 364 l 424 364 q 243 436 311 364 q 199 607 178 509 q 239 701 209 658 q 315 779 269 743 q 528 850 414 850 l 943 850 l 890 607 l 475 607 q 422 590 446 607 q 393 547 399 572 q 394 524 391 535 q 405 504 397 513 q 424 491 412 496 q 450 486 436 486 l 587 486 q 690 468 646 486 q 768 414 734 450 q 813 336 801 378 q 814 243 825 294 z "},"t":{"ha":657,"x_min":111,"x_max":675,"o":"m 346 0 q 165 71 230 0 q 121 149 132 106 q 121 243 111 192 l 277 972 l 414 972 l 389 850 l 665 850 l 640 729 l 364 729 l 286 364 q 286 316 280 338 q 307 278 292 294 q 346 252 322 262 q 399 243 369 243 l 675 243 l 624 0 l 346 0 z "},"u":{"ha":831,"x_min":111,"x_max":943,"o":"m 814 243 q 694 71 793 141 q 485 0 602 0 l 346 0 q 165 71 230 0 q 121 150 132 106 q 121 243 111 193 l 250 850 l 389 850 l 286 364 q 286 317 280 339 q 308 278 292 295 q 347 252 323 262 q 399 243 370 243 l 538 243 q 594 252 567 243 q 643 278 621 262 q 681 316 665 294 q 701 364 696 338 l 804 850 l 943 850 l 814 243 z "},"v":{"ha":831,"x_min":69,"x_max":943,"o":"m 814 243 q 694 71 793 141 q 485 0 602 0 l 69 0 l 250 850 l 389 850 l 260 243 l 538 243 q 594 252 567 243 q 643 278 621 262 q 681 316 665 294 q 701 364 696 338 l 804 850 l 943 850 l 814 243 z "},"w":{"ha":1385,"x_min":100,"x_max":1497,"o":"m 1368 243 q 1328 150 1358 193 q 1250 72 1298 108 q 1039 0 1153 0 l 957 0 q 872 12 911 0 q 803 44 833 23 q 753 97 772 66 q 728 165 734 127 q 673 97 706 127 q 602 44 641 66 q 518 12 562 23 q 429 0 474 0 l 346 0 q 167 72 231 0 q 121 243 100 142 l 250 850 l 389 850 l 286 364 q 286 317 280 339 q 308 278 292 295 q 347 252 323 262 q 399 243 370 243 l 538 243 q 594 252 567 243 q 643 278 621 262 q 681 316 665 294 q 701 364 696 338 l 804 850 l 943 850 l 840 364 q 841 316 835 338 q 861 278 846 294 q 900 252 876 262 q 953 243 923 243 l 1092 243 q 1147 252 1120 243 q 1197 278 1175 262 q 1234 317 1219 295 q 1255 364 1250 339 l 1358 850 l 1497 850 l 1368 243 z "},"x":{"ha":831,"x_min":69,"x_max":943,"o":"m 679 0 q 596 12 633 0 q 528 46 559 23 q 477 100 496 70 q 452 168 458 130 q 398 100 430 130 q 323 46 366 70 q 151 0 241 0 l 69 0 l 121 243 l 260 243 q 316 252 288 243 q 365 278 343 262 q 403 317 387 295 q 424 364 418 339 l 450 486 q 449 533 455 511 q 427 572 442 555 q 388 597 412 588 q 336 607 365 607 l 199 607 l 250 850 l 334 850 q 484 803 424 850 q 535 750 516 780 q 559 684 554 721 q 614 750 581 721 q 688 803 647 780 q 772 838 730 827 q 860 850 815 850 l 943 850 l 890 607 l 753 607 q 696 597 724 607 q 647 572 669 588 q 609 533 625 555 q 587 486 593 511 l 562 364 q 563 317 557 339 q 585 278 570 295 q 623 252 600 262 q 675 243 646 243 l 814 243 l 762 0 l 679 0 z "},"y":{"ha":831,"x_min":100,"x_max":943,"o":"m 736 -122 q 618 -294 715 -225 q 407 -366 524 -366 l 268 -366 l 321 -122 l 460 -122 q 517 -113 490 -122 q 566 -87 544 -103 q 603 -48 587 -71 q 624 0 618 -26 l 640 82 q 620 47 636 62 q 578 20 604 31 q 533 4 556 9 q 485 0 510 0 l 346 0 q 167 72 231 0 q 121 243 100 142 l 250 850 l 389 850 l 286 364 q 286 317 280 339 q 308 278 292 295 q 347 252 323 262 q 399 243 370 243 l 538 243 q 594 252 567 243 q 643 278 621 262 q 681 316 665 294 q 701 364 696 338 l 804 850 l 943 850 l 736 -122 z "},"z":{"ha":831,"x_min":69,"x_max":943,"o":"m 69 0 l 121 243 l 642 607 l 199 607 l 250 850 l 943 850 l 890 607 l 371 243 l 814 243 l 762 0 l 69 0 z "},"{":{"ha":624,"x_min":160,"x_max":717,"o":"m 460 -122 q 357 -104 402 -122 q 278 -50 313 -85 q 235 28 246 -14 q 233 121 223 71 l 297 425 l 160 425 l 186 547 l 325 547 l 389 850 q 429 944 399 901 q 507 1022 458 987 q 717 1093 603 1093 l 665 850 q 609 840 637 850 q 560 814 582 831 q 522 776 538 798 q 501 729 507 754 l 399 243 q 399 196 393 218 q 420 157 405 174 q 458 131 435 140 q 510 121 481 121 l 460 -122 z "},"|":{"ha":277,"x_min":43,"x_max":440,"o":"m 43 -122 l 301 1093 l 440 1093 l 182 -122 l 43 -122 z "},"}":{"ha":624,"x_min":113,"x_max":671,"o":"m 505 425 l 441 121 q 401 28 431 71 q 323 -50 372 -14 q 222 -104 275 -85 q 113 -122 170 -122 l 164 121 q 220 131 193 121 q 270 157 248 140 q 308 196 292 174 q 329 243 323 218 l 432 729 q 431 776 437 754 q 409 814 425 798 q 371 840 394 831 q 319 850 348 850 l 371 1093 q 551 1022 485 1093 q 597 850 616 953 l 532 547 l 671 547 l 644 425 l 505 425 z "},"~":{"ha":721,"x_min":150,"x_max":762,"o":"m 742 425 q 641 389 691 401 q 538 376 590 376 q 444 401 503 376 q 393 419 416 413 q 354 425 371 425 q 251 413 301 425 q 150 376 200 401 l 170 473 q 271 511 220 499 q 374 522 321 522 q 465 498 408 522 q 517 480 494 486 q 558 473 541 473 q 661 486 611 473 q 762 522 711 498 l 742 425 z "},"€":{"ha":831,"x_min":100,"x_max":968,"o":"m 346 0 q 167 72 231 0 q 121 243 100 142 l 225 729 q 264 822 235 780 q 343 900 294 864 q 443 954 391 936 q 553 972 495 972 l 968 972 l 918 729 l 501 729 q 446 720 473 729 q 396 693 418 710 q 358 654 374 677 q 336 607 342 632 l 753 607 l 733 522 l 318 522 l 304 450 l 720 450 l 701 364 l 286 364 q 286 317 280 339 q 308 278 292 295 q 347 252 323 262 q 399 243 370 243 l 814 243 l 762 0 l 346 0 z "},"‚":{"ha":334,"x_min":69,"x_max":300,"o":"m 100 -122 l 110 -74 l 192 -74 l 208 0 l 69 0 l 106 170 l 300 170 l 237 -122 l 100 -122 z "},"ƒ":{"ha":796,"x_min":-286,"x_max":982,"o":"m 907 790 l 629 790 q 571 781 599 790 q 521 756 544 772 q 481 718 498 740 q 453 668 463 695 q 441 635 452 665 q 414 547 431 605 l 692 547 l 654 425 l 376 425 l 243 0 q 228 -50 237 -20 q 205 -122 218 -80 q 153 -217 186 -174 q 69 -296 120 -260 q -147 -366 -29 -366 l -286 -366 l -210 -122 l -72 -122 q -14 -113 -42 -122 q 38 -87 15 -103 q 79 -48 62 -71 q 104 0 96 -26 l 353 790 q 401 884 368 842 q 486 962 433 927 q 704 1034 588 1034 l 982 1034 l 907 790 z "},"„":{"ha":636,"x_min":69,"x_max":604,"o":"m 100 -122 l 110 -74 l 192 -74 l 208 0 l 69 0 l 106 170 l 300 170 l 237 -122 l 100 -122 m 403 -122 l 412 -74 l 497 -74 l 513 0 l 374 0 l 411 170 l 604 170 l 542 -122 l 403 -122 z "},"…":{"ha":997,"x_min":69,"x_max":965,"o":"m 69 0 l 106 170 l 300 170 l 264 0 l 69 0 m 403 0 l 439 170 l 632 170 l 596 0 l 403 0 m 733 0 l 771 170 l 965 170 l 928 0 l 733 0 z "},"†":{"ha":693,"x_min":199,"x_max":779,"o":"m 545 607 l 364 -243 l 225 -243 l 406 607 l 199 607 l 225 729 l 432 729 l 484 972 l 623 972 l 571 729 l 779 729 l 753 607 l 545 607 z "},"‡":{"ha":693,"x_min":121,"x_max":779,"o":"m 468 243 l 364 -243 l 225 -243 l 329 243 l 121 243 l 147 364 l 354 364 l 406 607 l 199 607 l 225 729 l 432 729 l 484 972 l 623 972 l 571 729 l 779 729 l 753 607 l 545 607 l 493 364 l 701 364 l 675 243 l 468 243 z "},"ˆ":{"ha":471,"x_min":239,"x_max":572,"o":"m 489 802 l 428 904 l 322 802 l 239 802 l 386 972 l 497 972 l 572 802 l 489 802 z "},"‰":{"ha":1899,"x_min":172,"x_max":1934,"o":"m 633 699 q 633 734 637 718 q 616 763 628 751 q 587 783 605 776 q 549 790 570 790 l 444 790 q 402 783 422 790 q 365 763 382 776 q 337 734 349 751 q 321 699 325 718 l 301 607 q 302 572 298 589 q 319 544 307 556 q 347 524 330 531 q 386 517 364 517 l 490 517 q 533 524 513 517 q 570 543 554 530 q 598 571 587 555 q 614 607 610 587 l 633 699 m 1386 364 q 1385 399 1390 382 q 1369 428 1380 416 q 1341 448 1358 441 q 1303 456 1324 456 l 1198 456 q 1156 448 1177 456 q 1119 428 1136 441 q 1090 399 1102 416 q 1075 364 1078 382 l 1055 273 q 1056 238 1051 255 q 1072 209 1061 222 q 1101 189 1084 197 q 1140 182 1118 182 l 1244 182 q 1287 189 1267 182 q 1324 208 1308 196 q 1351 237 1340 220 q 1367 273 1362 254 l 1386 364 m 1803 364 q 1802 399 1807 382 q 1785 428 1796 416 q 1756 448 1773 441 q 1718 456 1739 456 l 1614 456 q 1573 448 1593 456 q 1536 428 1552 441 q 1507 399 1519 416 q 1492 364 1495 382 l 1472 273 q 1472 237 1468 254 q 1488 208 1476 220 q 1516 189 1499 196 q 1556 182 1533 182 l 1659 182 q 1701 189 1681 182 q 1738 209 1721 197 q 1767 238 1755 222 q 1784 273 1780 255 l 1803 364 m 699 517 q 668 446 690 478 q 610 386 646 414 q 452 335 538 335 l 347 335 q 272 348 304 335 q 212 387 239 361 q 179 446 187 414 q 179 517 172 479 l 237 790 q 267 860 245 828 q 325 918 290 892 q 484 972 399 972 l 587 972 q 724 918 673 972 q 756 860 747 892 q 757 790 766 828 l 699 517 m 672 0 l 879 972 l 1017 972 l 811 0 l 672 0 m 1868 182 q 1837 112 1860 144 q 1777 53 1815 80 q 1703 14 1742 27 q 1621 0 1663 0 l 1572 0 q 1507 9 1537 0 q 1451 35 1476 18 q 1410 76 1427 52 q 1389 127 1394 99 q 1345 76 1371 99 q 1286 35 1318 52 q 1220 9 1255 18 q 1150 0 1185 0 l 1101 0 q 966 53 1016 0 q 932 182 916 108 l 990 456 q 1020 525 998 493 q 1079 585 1042 557 q 1238 637 1152 637 l 1286 637 q 1352 628 1320 637 q 1407 602 1383 619 q 1448 562 1432 585 q 1471 510 1465 538 q 1514 562 1487 538 q 1572 602 1540 585 q 1639 628 1604 619 q 1708 637 1674 637 l 1757 637 q 1890 585 1841 637 q 1925 525 1917 557 q 1927 456 1934 493 l 1868 182 z "},"Š":{"ha":831,"x_min":69,"x_max":968,"o":"m 814 243 q 774 150 804 193 q 696 72 744 108 q 485 0 599 0 l 69 0 l 121 243 l 501 243 q 543 250 522 243 q 581 270 564 258 q 609 299 597 283 q 625 335 621 316 q 625 370 629 353 q 608 398 620 386 q 578 418 596 410 q 539 425 561 425 l 436 425 q 334 444 378 425 q 257 497 290 462 q 211 668 191 568 l 225 729 q 264 822 235 780 q 343 900 294 864 q 443 954 391 936 q 553 972 495 972 l 968 972 l 918 729 l 536 729 q 495 722 515 729 q 457 702 475 715 q 428 673 440 690 q 412 637 416 656 q 414 602 409 618 q 430 574 418 586 q 459 554 442 562 q 497 547 476 547 l 602 547 q 703 529 659 547 q 782 475 747 511 q 827 304 847 404 l 814 243 m 694 1044 l 582 1044 l 509 1215 l 591 1215 l 653 1112 l 757 1215 l 840 1215 l 694 1044 z "},"‹":{"ha":547,"x_min":163,"x_max":616,"o":"m 468 239 l 163 437 l 183 534 l 572 733 l 616 652 l 290 486 l 546 321 l 468 239 z "},"Œ":{"ha":1178,"x_min":111,"x_max":1315,"o":"m 753 607 q 751 654 758 632 q 730 693 745 677 q 692 720 715 710 q 640 729 669 729 l 501 729 q 446 720 473 729 q 396 693 418 710 q 358 654 374 677 q 336 607 342 632 l 286 364 q 286 317 280 339 q 308 278 292 295 q 347 252 323 262 q 399 243 370 243 l 538 243 q 594 252 567 243 q 643 278 621 262 q 681 316 665 294 q 701 364 696 338 l 753 607 m 957 0 q 872 12 910 0 q 805 47 833 24 q 757 102 776 70 q 732 174 739 134 q 679 102 711 134 q 607 47 646 70 q 522 12 567 24 q 429 0 477 0 l 346 0 q 165 71 230 0 q 121 150 132 106 q 121 243 111 193 l 225 729 q 343 900 243 829 q 442 954 389 936 q 553 972 495 972 l 636 972 q 738 955 694 972 q 815 903 782 937 l 831 972 l 1315 972 l 1264 729 l 918 729 l 879 547 l 1086 547 l 1060 425 l 851 425 l 840 364 q 841 316 835 338 q 861 278 846 294 q 900 252 876 262 q 953 243 923 243 l 1161 243 l 1108 0 l 957 0 z "},"Ž":{"ha":831,"x_min":69,"x_max":968,"o":"m 69 0 l 121 243 l 710 729 l 225 729 l 277 972 l 968 972 l 918 729 l 329 243 l 814 243 l 762 0 l 69 0 m 694 1044 l 582 1044 l 509 1215 l 591 1215 l 653 1112 l 757 1215 l 840 1215 l 694 1044 z "},"‘":{"ha":334,"x_min":228,"x_max":457,"o":"m 228 742 l 289 1034 l 428 1034 l 416 985 l 335 985 l 318 911 l 457 911 l 422 742 l 228 742 z "},"’":{"ha":334,"x_min":253,"x_max":484,"o":"m 283 742 l 293 790 l 375 790 l 392 863 l 253 863 l 289 1034 l 484 1034 l 422 742 l 283 742 z "},"“":{"ha":636,"x_min":228,"x_max":761,"o":"m 228 742 l 289 1034 l 428 1034 l 416 985 l 335 985 l 318 911 l 457 911 l 422 742 l 228 742 m 532 742 l 595 1034 l 733 1034 l 722 985 l 637 985 l 623 911 l 761 911 l 725 742 l 532 742 z "},"”":{"ha":636,"x_min":253,"x_max":787,"o":"m 283 742 l 293 790 l 375 790 l 392 863 l 253 863 l 289 1034 l 484 1034 l 422 742 l 283 742 m 587 742 l 597 790 l 681 790 l 696 863 l 558 863 l 595 1034 l 787 1034 l 725 742 l 587 742 z "},"•":{"ha":624,"x_min":171,"x_max":633,"o":"m 593 340 q 572 292 587 314 q 534 253 556 269 q 484 228 511 237 q 427 218 456 218 l 288 218 q 236 228 259 218 q 198 254 214 237 q 177 293 183 271 q 176 340 171 315 l 211 510 q 233 557 217 535 q 271 596 249 580 q 321 623 294 613 q 376 632 348 632 l 515 632 q 567 623 544 632 q 606 596 591 613 q 627 557 621 580 q 628 510 633 535 l 593 340 z "},"–":{"ha":554,"x_min":150,"x_max":586,"o":"m 150 376 l 170 473 l 586 473 l 566 376 l 150 376 z "},"—":{"ha":831,"x_min":150,"x_max":863,"o":"m 150 376 l 170 473 l 863 473 l 842 376 l 150 376 z "},"˜":{"ha":554,"x_min":245,"x_max":692,"o":"m 671 875 q 600 838 636 850 q 522 827 564 827 q 458 850 495 827 q 393 875 421 875 q 315 863 353 875 q 245 827 277 852 l 267 924 q 336 961 298 949 q 414 972 373 972 q 479 947 441 972 q 543 924 515 924 q 621 935 584 924 q 692 972 657 947 l 671 875 z "},"™":{"ha":1552,"x_min":237,"x_max":1666,"o":"m 1455 364 l 1527 699 q 1526 734 1531 718 q 1510 763 1521 751 q 1481 783 1498 776 q 1443 790 1464 790 l 1337 790 q 1295 783 1315 790 q 1258 764 1274 777 q 1231 735 1242 752 q 1215 699 1219 718 l 1145 364 l 1040 364 l 1111 699 q 1111 735 1115 718 q 1096 764 1107 752 q 1066 783 1084 777 q 1026 790 1048 790 l 922 790 q 881 783 901 790 q 845 763 861 776 q 816 734 828 751 q 800 699 804 718 l 729 364 l 625 364 l 714 790 l 549 790 l 458 364 l 354 364 l 444 790 l 237 790 l 277 972 l 796 972 l 781 899 q 961 972 859 972 l 1025 972 q 1087 963 1058 972 q 1139 938 1116 954 q 1176 899 1162 922 q 1196 848 1191 876 q 1236 899 1212 876 q 1290 938 1260 922 q 1352 963 1319 954 q 1419 972 1385 972 l 1482 972 q 1617 918 1567 972 q 1650 790 1666 867 l 1560 364 l 1455 364 z "},"š":{"ha":831,"x_min":69,"x_max":943,"o":"m 814 243 q 774 150 804 193 q 696 72 744 108 q 485 0 599 0 l 69 0 l 121 243 l 538 243 q 590 260 567 243 q 618 304 612 278 q 618 328 621 317 q 607 347 615 338 q 588 359 600 355 q 562 364 576 364 l 424 364 q 243 436 311 364 q 199 607 178 509 q 239 701 209 658 q 315 779 269 743 q 528 850 414 850 l 943 850 l 890 607 l 475 607 q 422 590 446 607 q 393 547 399 572 q 394 524 391 535 q 405 504 397 513 q 424 491 412 496 q 450 486 436 486 l 587 486 q 690 468 646 486 q 768 414 734 450 q 813 336 801 378 q 814 243 825 294 m 668 924 l 557 924 l 481 1093 l 566 1093 l 627 991 l 730 1093 l 814 1093 l 668 924 z "},"›":{"ha":547,"x_min":138,"x_max":591,"o":"m 180 239 l 138 321 l 463 486 l 208 652 l 286 733 l 591 534 l 571 437 l 180 239 z "},"œ":{"ha":1247,"x_min":111,"x_max":1358,"o":"m 726 486 q 726 533 732 511 q 705 572 720 555 q 666 597 689 588 q 614 607 642 607 l 475 607 q 419 597 446 607 q 370 572 392 588 q 332 533 347 555 q 311 486 316 511 l 286 364 q 286 317 280 339 q 308 278 292 295 q 347 252 323 262 q 399 243 370 243 l 538 243 q 594 252 567 243 q 643 278 621 262 q 681 316 665 294 q 701 364 696 338 l 726 486 m 957 0 q 804 46 867 0 q 753 99 772 69 q 728 167 733 129 q 674 98 706 129 q 603 45 642 67 q 519 12 564 24 q 429 0 475 0 l 346 0 q 165 71 230 0 q 121 150 132 106 q 121 243 111 193 l 199 607 q 315 779 219 707 q 417 832 363 815 q 528 850 470 850 l 610 850 q 761 803 702 850 q 812 750 793 780 q 838 684 832 721 q 965 803 880 757 q 1048 838 1006 827 q 1137 850 1091 850 l 1358 850 l 1307 607 l 1029 607 q 974 597 1001 607 q 924 572 946 588 q 886 533 901 555 q 865 486 870 511 l 1141 486 l 1117 364 l 840 364 q 841 317 835 339 q 862 278 847 295 q 901 252 878 262 q 953 243 924 243 l 1229 243 l 1178 0 l 957 0 z "},"ž":{"ha":831,"x_min":69,"x_max":943,"o":"m 69 0 l 121 243 l 642 607 l 199 607 l 250 850 l 943 850 l 890 607 l 371 243 l 814 243 l 762 0 l 69 0 m 668 924 l 557 924 l 481 1093 l 566 1093 l 627 991 l 730 1093 l 814 1093 l 668 924 z "},"Ÿ":{"ha":831,"x_min":163,"x_max":968,"o":"m 876 534 q 757 363 854 433 q 547 292 663 292 l 485 0 l 346 0 l 408 292 q 228 363 294 292 q 183 534 163 433 l 277 972 l 414 972 l 347 656 q 348 609 342 631 q 370 570 355 587 q 409 544 385 553 q 461 534 432 534 l 599 534 q 655 544 628 534 q 705 570 683 553 q 742 608 727 586 q 762 656 757 630 l 831 972 l 968 972 l 876 534 m 431 1044 l 456 1166 l 595 1166 l 568 1044 l 431 1044 m 707 1044 l 733 1166 l 871 1166 l 846 1044 l 707 1044 z "},"¡":{"ha":334,"x_min":43,"x_max":444,"o":"m 43 -122 l 244 558 l 326 558 l 237 -122 l 43 -122 m 214 681 l 250 850 l 444 850 l 408 681 l 214 681 z "},"¢":{"ha":831,"x_min":136,"x_max":968,"o":"m 579 121 l 554 0 l 415 0 l 441 121 l 372 121 q 271 139 315 121 q 192 193 227 157 q 148 271 159 229 q 147 364 136 313 l 225 729 q 264 822 235 780 q 343 900 294 864 q 443 954 391 936 q 553 972 495 972 l 623 972 l 647 1093 l 786 1093 l 761 972 l 968 972 l 918 729 l 501 729 q 446 720 473 729 q 396 693 418 710 q 358 654 374 677 q 336 607 342 632 l 311 486 q 311 439 305 461 q 333 400 317 416 q 372 374 349 383 q 424 364 395 364 l 840 364 l 787 121 l 579 121 z "},"£":{"ha":831,"x_min":69,"x_max":843,"o":"m 69 0 l 237 790 q 354 962 258 892 q 567 1034 450 1034 l 843 1034 l 791 790 l 514 790 q 457 781 484 790 q 408 755 429 771 q 371 716 386 739 q 350 668 355 694 l 325 547 l 602 547 l 575 425 l 297 425 l 260 243 l 814 243 l 762 0 l 69 0 z "},"¤":{"ha":831,"x_min":100,"x_max":968,"o":"m 346 0 q 167 72 231 0 q 121 243 100 142 l 225 729 q 264 822 235 780 q 343 900 294 864 q 443 954 391 936 q 553 972 495 972 l 968 972 l 918 729 l 501 729 q 446 720 473 729 q 396 693 418 710 q 358 654 374 677 q 336 607 342 632 l 753 607 l 733 522 l 318 522 l 304 450 l 720 450 l 701 364 l 286 364 q 286 317 280 339 q 308 278 292 295 q 347 252 323 262 q 399 243 370 243 l 814 243 l 762 0 l 346 0 z "},"¥":{"ha":831,"x_min":94,"x_max":968,"o":"m 510 121 l 485 0 l 346 0 l 372 121 l 94 121 l 121 243 l 399 243 l 424 364 l 147 364 l 172 486 l 450 486 q 268 557 337 486 q 225 636 237 593 q 225 729 214 679 l 277 972 l 414 972 l 374 778 q 374 731 368 753 q 395 692 380 709 q 434 666 411 675 q 486 656 458 656 l 625 656 q 682 665 654 656 q 731 690 709 674 q 768 729 753 707 q 789 778 783 751 l 831 972 l 968 972 l 918 729 q 877 635 907 678 q 799 557 848 593 q 587 486 704 486 l 865 486 l 840 364 l 562 364 l 538 243 l 814 243 l 787 121 l 510 121 z "},"¦":{"ha":277,"x_min":43,"x_max":440,"o":"m 43 -122 l 154 401 l 293 401 l 182 -122 l 43 -122 m 191 571 l 301 1093 l 440 1093 l 329 571 l 191 571 z "},"§":{"ha":831,"x_min":17,"x_max":968,"o":"m 632 364 q 631 412 637 389 q 609 451 625 434 q 571 477 594 467 q 519 486 548 486 q 463 477 490 486 q 413 451 435 467 q 375 412 391 434 q 354 364 359 389 q 355 317 349 339 q 377 278 362 295 q 416 252 393 262 q 468 243 439 243 q 524 252 496 243 q 573 278 551 262 q 610 317 595 295 q 632 364 626 339 m 762 0 q 721 -93 751 -50 q 644 -171 691 -135 q 543 -225 595 -208 q 432 -243 491 -243 l 17 -243 l 69 0 l 485 0 q 512 5 498 0 q 537 18 526 9 q 556 38 548 26 q 568 61 565 49 q 567 84 570 73 q 555 103 563 95 q 536 116 547 111 q 510 121 524 121 l 372 121 q 271 139 315 121 q 192 193 227 157 q 148 271 159 229 q 147 364 136 313 q 192 465 159 419 q 281 547 226 511 q 227 629 241 584 q 225 729 212 674 q 264 822 235 780 q 343 900 294 864 q 443 954 391 936 q 553 972 495 972 l 968 972 l 918 729 l 501 729 q 474 724 488 729 q 449 711 460 720 q 430 691 438 703 q 419 668 422 680 q 420 645 416 656 q 431 626 423 634 q 450 612 439 617 q 475 607 461 607 l 614 607 q 794 536 728 607 q 840 364 859 466 q 705 182 815 256 q 759 100 744 145 q 762 0 774 54 z "},"¨":{"ha":554,"x_min":250,"x_max":692,"o":"m 250 850 l 277 972 l 414 972 l 389 850 l 250 850 m 528 850 l 553 972 l 692 972 l 665 850 l 528 850 z "},"©":{"ha":970,"x_min":111,"x_max":1035,"o":"m 454 146 q 402 155 426 146 q 363 181 379 165 q 342 219 348 197 q 342 267 336 241 l 393 510 q 414 557 398 535 q 452 596 429 580 q 502 623 474 613 q 558 632 529 632 l 765 632 l 739 510 l 530 510 q 503 505 516 510 q 478 492 490 500 q 460 473 467 484 q 450 450 452 463 l 422 328 q 424 304 420 315 q 434 285 427 294 q 454 272 442 277 q 481 267 466 267 l 688 267 l 663 146 l 454 146 m 942 583 q 941 630 947 608 q 919 669 935 652 q 881 694 904 685 q 829 704 857 704 l 440 704 q 385 694 412 704 q 335 669 357 685 q 297 630 313 652 q 277 583 281 608 l 193 195 q 194 147 188 170 q 216 108 201 125 q 254 82 231 92 q 306 72 277 72 l 694 72 q 751 81 724 72 q 801 107 779 91 q 838 146 823 123 q 860 195 854 168 l 942 583 m 953 243 q 912 149 941 192 q 833 71 882 106 q 624 0 741 0 l 346 0 q 165 71 230 0 q 121 150 132 106 q 121 243 111 193 l 183 534 q 300 705 205 635 q 401 760 349 741 q 511 778 454 778 l 789 778 q 968 705 903 778 q 1015 534 1035 635 l 953 243 z "},"ª":{"ha":657,"x_min":172,"x_max":766,"o":"m 633 699 q 633 735 637 718 q 617 764 629 752 q 589 783 606 777 q 549 790 571 790 l 444 790 q 402 783 422 790 q 365 763 382 776 q 337 734 349 751 q 321 699 325 718 l 301 607 q 302 572 298 589 q 319 544 307 556 q 347 524 330 531 q 386 517 364 517 l 490 517 q 532 524 511 517 q 570 544 553 531 q 598 572 587 556 q 614 607 610 589 l 633 699 m 555 335 l 568 395 q 522 349 561 364 q 488 338 505 341 q 452 335 470 335 l 347 335 q 272 348 304 335 q 212 387 239 361 q 179 446 187 414 q 179 517 172 479 l 237 790 q 267 860 245 828 q 325 918 290 892 q 484 972 399 972 l 587 972 q 724 918 673 972 q 756 860 747 892 q 757 790 766 828 l 660 335 l 555 335 z "},"«":{"ha":962,"x_min":111,"x_max":981,"o":"m 416 0 l 111 199 l 132 296 l 521 493 l 566 412 l 239 248 l 494 82 l 416 0 m 832 0 l 528 199 l 549 296 l 937 493 l 981 412 l 656 248 l 909 82 l 832 0 z "},"¬":{"ha":693,"x_min":150,"x_max":724,"o":"m 568 256 l 593 376 l 150 376 l 170 473 l 724 473 l 677 256 l 568 256 z "},"®":{"ha":970,"x_min":111,"x_max":1035,"o":"m 653 465 q 645 497 657 484 q 611 510 632 510 l 489 510 l 469 419 l 591 419 q 612 423 602 419 q 630 433 622 427 q 645 448 639 439 q 653 465 651 456 m 621 146 l 647 273 q 648 307 651 291 q 636 334 645 322 q 613 352 627 345 q 579 358 598 358 l 457 358 l 412 146 l 343 146 l 446 632 l 656 632 q 706 623 684 632 q 744 596 729 613 q 765 557 759 580 q 765 510 771 535 q 726 433 755 464 q 646 389 696 402 q 715 273 734 362 l 689 146 l 621 146 m 942 583 q 941 630 947 608 q 919 669 935 652 q 881 694 904 685 q 829 704 857 704 l 440 704 q 385 694 412 704 q 335 669 357 685 q 297 630 313 652 q 277 583 281 608 l 193 195 q 194 147 188 170 q 216 108 201 125 q 254 82 231 92 q 306 72 277 72 l 694 72 q 751 81 724 72 q 801 107 779 91 q 838 146 823 123 q 860 195 854 168 l 942 583 m 953 243 q 912 149 941 192 q 833 71 882 106 q 624 0 741 0 l 346 0 q 165 71 230 0 q 121 150 132 106 q 121 243 111 193 l 183 534 q 300 705 205 635 q 401 760 349 741 q 511 778 454 778 l 789 778 q 968 705 903 778 q 1015 534 1035 635 l 953 243 z "},"°":{"ha":471,"x_min":251,"x_max":597,"o":"m 534 888 q 534 925 539 907 q 517 956 530 943 q 486 977 505 969 q 444 985 467 985 q 399 977 421 985 q 360 956 378 969 q 330 925 342 943 q 314 888 318 907 q 315 849 310 867 q 331 818 319 831 q 361 798 343 805 q 403 790 380 790 q 448 798 426 790 q 487 818 469 805 q 518 849 505 831 q 534 888 530 867 m 590 888 q 566 831 584 857 q 519 783 549 804 q 393 742 462 742 q 285 783 324 742 q 257 831 264 804 q 257 888 251 857 q 281 944 264 918 q 328 990 298 969 q 389 1022 357 1011 q 456 1034 421 1034 q 517 1022 490 1034 q 564 990 544 1011 q 590 944 583 969 q 590 888 597 918 z "},"±":{"ha":693,"x_min":69,"x_max":737,"o":"m 69 0 l 90 97 l 644 97 l 624 0 l 69 0 m 496 437 l 454 243 l 343 243 l 383 437 l 163 437 l 183 534 l 404 534 l 446 729 l 558 729 l 517 534 l 737 534 l 717 437 l 496 437 z "},"²":{"ha":485,"x_min":199,"x_max":627,"o":"m 199 607 l 231 760 q 252 807 236 785 q 290 845 267 829 q 339 871 312 861 q 395 880 366 880 l 422 880 q 509 928 497 878 q 500 959 512 945 q 468 972 489 972 l 277 972 l 301 1093 l 510 1093 q 562 1084 538 1093 q 600 1058 585 1074 q 621 1020 615 1042 q 623 972 627 998 l 616 942 q 595 895 611 917 q 557 856 579 873 q 507 830 534 840 q 452 821 480 821 l 366 821 q 326 807 345 821 q 304 775 308 794 l 294 729 l 571 729 l 545 607 l 199 607 z "},"³":{"ha":485,"x_min":199,"x_max":627,"o":"m 571 729 q 550 682 566 704 q 512 643 534 660 q 461 617 489 627 q 406 607 434 607 l 199 607 l 225 729 l 416 729 q 436 733 427 729 q 454 743 446 736 q 468 758 463 749 q 476 775 474 766 q 468 807 479 794 q 435 821 456 821 l 313 821 l 325 880 l 449 880 q 487 895 469 880 q 509 928 504 909 q 500 959 512 945 q 468 972 489 972 l 277 972 l 301 1093 l 510 1093 q 563 1083 540 1093 q 601 1057 587 1074 q 621 1016 616 1040 q 621 966 627 993 q 606 928 616 947 q 578 895 595 910 q 542 868 562 880 q 500 850 522 856 q 571 729 589 823 z "},"´":{"ha":334,"x_min":277,"x_max":433,"o":"m 350 802 l 277 972 l 386 972 l 433 802 l 350 802 z "},"µ":{"ha":831,"x_min":17,"x_max":943,"o":"m 346 0 q 301 4 322 0 q 261 20 280 9 q 225 82 219 42 l 155 -243 l 17 -243 l 250 850 l 389 850 l 286 364 q 286 317 280 339 q 308 278 292 295 q 347 252 323 262 q 399 243 370 243 l 675 243 l 804 850 l 943 850 l 762 0 l 346 0 z "},"μ":{"ha":831,"x_min":17,"x_max":943,"o":"m 346 0 q 301 4 322 0 q 261 20 280 9 q 225 82 219 42 l 155 -243 l 17 -243 l 250 850 l 389 850 l 286 364 q 286 317 280 339 q 308 278 292 295 q 347 252 323 262 q 399 243 370 243 l 675 243 l 804 850 l 943 850 l 762 0 l 346 0 z "},"¶":{"ha":970,"x_min":191,"x_max":1107,"o":"m 943 850 l 710 -243 l 571 -243 l 804 850 l 665 850 l 432 -243 l 294 -243 l 436 425 q 334 444 378 425 q 257 497 290 462 q 211 668 191 568 l 225 729 q 264 822 235 780 q 343 900 294 864 q 443 954 391 936 q 553 972 495 972 l 1107 972 l 1082 850 l 943 850 z "},"·":{"ha":334,"x_min":142,"x_max":372,"o":"m 142 340 l 178 510 l 372 510 l 336 340 l 142 340 z "},"¸":{"ha":359,"x_min":17,"x_max":265,"o":"m 258 -146 q 242 -184 254 -166 q 212 -215 230 -201 q 172 -235 194 -228 q 127 -243 151 -243 l 17 -243 l 39 -207 l 136 -207 q 164 -202 151 -207 q 188 -189 177 -197 q 208 -169 199 -180 q 218 -146 216 -158 q 218 -122 221 -134 q 207 -103 214 -111 q 187 -90 199 -94 q 161 -85 176 -85 l 92 -85 l 143 24 l 227 24 l 191 -52 q 247 -86 228 -59 q 258 -146 265 -113 z "},"¹":{"ha":277,"x_min":199,"x_max":404,"o":"m 199 607 l 225 729 l 258 729 l 310 972 l 277 972 l 301 1093 l 404 1093 l 328 729 l 364 729 l 336 607 l 199 607 z "},"º":{"ha":657,"x_min":172,"x_max":766,"o":"m 633 699 q 633 734 637 718 q 616 763 628 751 q 587 783 605 776 q 549 790 570 790 l 444 790 q 402 783 422 790 q 365 763 382 776 q 337 734 349 751 q 321 699 325 718 l 301 607 q 302 572 298 589 q 319 544 307 556 q 347 524 330 531 q 386 517 364 517 l 490 517 q 533 524 513 517 q 570 543 554 530 q 598 571 587 555 q 614 607 610 587 l 633 699 m 699 517 q 668 446 690 478 q 610 386 646 414 q 452 335 538 335 l 347 335 q 272 348 304 335 q 212 387 239 361 q 179 446 187 414 q 179 517 172 479 l 237 790 q 267 860 245 828 q 325 918 290 892 q 484 972 399 972 l 587 972 q 724 918 673 972 q 756 860 747 892 q 757 790 766 828 l 699 517 z "},"»":{"ha":962,"x_min":86,"x_max":957,"o":"m 131 0 l 86 82 l 412 248 l 157 412 l 235 493 l 541 296 l 519 199 l 131 0 m 546 0 l 501 82 l 828 248 l 572 412 l 650 493 l 957 296 l 936 199 l 546 0 z "},"¼":{"ha":693,"x_min":165,"x_max":733,"o":"m 429 0 l 443 68 l 222 68 l 269 292 l 325 292 l 298 165 l 464 165 l 511 389 l 568 389 l 485 0 l 429 0 m 165 450 l 179 522 l 733 522 l 720 450 l 165 450 m 414 583 l 435 681 l 463 681 l 504 875 l 476 875 l 497 972 l 581 972 l 519 681 l 547 681 l 526 583 l 414 583 z "},"½":{"ha":693,"x_min":165,"x_max":733,"o":"m 208 0 l 233 121 q 251 159 238 141 q 281 190 263 176 q 320 211 298 203 q 364 218 342 218 l 406 218 q 457 256 449 218 q 422 292 463 292 l 269 292 l 290 389 l 457 389 q 498 381 480 389 q 529 360 517 373 q 546 329 541 347 q 547 292 551 311 l 542 267 q 525 229 537 247 q 494 198 512 212 q 455 177 476 185 q 411 170 433 170 l 342 170 q 292 134 300 170 l 285 97 l 505 97 l 485 0 l 208 0 m 165 450 l 179 522 l 733 522 l 720 450 l 165 450 m 414 583 l 435 681 l 463 681 l 504 875 l 476 875 l 497 972 l 581 972 l 519 681 l 547 681 l 526 583 l 414 583 z "},"¾":{"ha":693,"x_min":165,"x_max":733,"o":"m 429 0 l 443 68 l 222 68 l 269 292 l 325 292 l 298 165 l 464 165 l 511 389 l 568 389 l 485 0 l 429 0 m 165 450 l 179 522 l 733 522 l 720 450 l 165 450 m 629 681 q 612 643 625 661 q 582 611 600 625 q 543 591 564 598 q 498 583 521 583 l 332 583 l 353 681 l 504 681 q 554 717 546 681 q 519 753 562 753 l 424 753 l 433 802 l 529 802 q 581 839 572 802 q 546 875 589 875 l 393 875 l 414 972 l 581 972 q 622 965 604 972 q 653 944 641 957 q 670 912 665 930 q 671 875 675 895 l 669 869 q 574 778 655 798 q 629 681 646 754 z "},"¿":{"ha":749,"x_min":76,"x_max":791,"o":"m 321 -122 q 218 -104 263 -122 q 140 -50 174 -85 q 94 121 76 20 q 136 215 106 172 q 212 293 165 257 q 424 364 311 364 l 533 364 l 590 558 l 673 558 l 633 243 l 399 243 q 372 238 385 243 q 347 225 358 233 q 327 205 335 216 q 315 182 318 194 q 316 159 313 170 q 327 139 319 148 q 347 126 335 131 q 372 121 358 121 l 704 121 l 654 -122 l 321 -122 m 559 681 l 597 850 l 791 850 l 754 681 l 559 681 z "},"À":{"ha":831,"x_min":69,"x_max":928,"o":"m 753 607 q 752 655 758 633 q 731 694 746 677 q 693 720 716 710 q 640 729 670 729 l 501 729 q 446 720 473 729 q 396 693 418 710 q 358 654 374 677 q 336 607 342 632 l 286 364 l 701 364 l 753 607 m 624 0 l 675 243 l 260 243 l 208 0 l 69 0 l 225 729 q 264 822 235 780 q 343 900 294 864 q 443 954 391 936 q 553 972 495 972 l 692 972 q 872 901 810 972 q 917 823 906 866 q 918 729 928 781 l 762 0 l 624 0 m 597 1044 l 522 1215 l 633 1215 l 679 1044 l 597 1044 z "},"Á":{"ha":831,"x_min":69,"x_max":928,"o":"m 753 607 q 752 655 758 633 q 731 694 746 677 q 693 720 716 710 q 640 729 670 729 l 501 729 q 446 720 473 729 q 396 693 418 710 q 358 654 374 677 q 336 607 342 632 l 286 364 l 701 364 l 753 607 m 624 0 l 675 243 l 260 243 l 208 0 l 69 0 l 225 729 q 264 822 235 780 q 343 900 294 864 q 443 954 391 936 q 553 972 495 972 l 692 972 q 872 901 810 972 q 917 823 906 866 q 918 729 928 781 l 762 0 l 624 0 m 679 1044 l 597 1044 l 715 1215 l 827 1215 l 679 1044 z "},"Â":{"ha":831,"x_min":69,"x_max":928,"o":"m 753 607 q 752 655 758 633 q 731 694 746 677 q 693 720 716 710 q 640 729 670 729 l 501 729 q 446 720 473 729 q 396 693 418 710 q 358 654 374 677 q 336 607 342 632 l 286 364 l 701 364 l 753 607 m 624 0 l 675 243 l 260 243 l 208 0 l 69 0 l 225 729 q 264 822 235 780 q 343 900 294 864 q 443 954 391 936 q 553 972 495 972 l 692 972 q 872 901 810 972 q 917 823 906 866 q 918 729 928 781 l 762 0 l 624 0 m 721 1044 l 660 1147 l 555 1044 l 471 1044 l 618 1215 l 730 1215 l 804 1044 l 721 1044 z "},"Ã":{"ha":831,"x_min":69,"x_max":928,"o":"m 753 607 q 752 655 758 633 q 731 694 746 677 q 693 720 716 710 q 640 729 670 729 l 501 729 q 446 720 473 729 q 396 693 418 710 q 358 654 374 677 q 336 607 342 632 l 286 364 l 701 364 l 753 607 m 624 0 l 675 243 l 260 243 l 208 0 l 69 0 l 225 729 q 264 822 235 780 q 343 900 294 864 q 443 954 391 936 q 553 972 495 972 l 692 972 q 872 901 810 972 q 917 823 906 866 q 918 729 928 781 l 762 0 l 624 0 m 856 1093 q 785 1057 822 1069 q 707 1044 749 1044 q 677 1051 693 1044 q 643 1069 661 1058 q 608 1087 624 1081 q 578 1093 593 1093 q 500 1081 537 1093 q 431 1044 463 1069 l 452 1141 q 521 1179 484 1167 q 599 1190 558 1190 q 664 1166 626 1190 q 698 1148 682 1155 q 728 1141 714 1141 q 805 1154 768 1141 q 876 1190 842 1166 l 856 1093 z "},"Ä":{"ha":831,"x_min":69,"x_max":928,"o":"m 753 607 q 752 655 758 633 q 731 694 746 677 q 693 720 716 710 q 640 729 670 729 l 501 729 q 446 720 473 729 q 396 693 418 710 q 358 654 374 677 q 336 607 342 632 l 286 364 l 701 364 l 753 607 m 624 0 l 675 243 l 260 243 l 208 0 l 69 0 l 225 729 q 264 822 235 780 q 343 900 294 864 q 443 954 391 936 q 553 972 495 972 l 692 972 q 872 901 810 972 q 917 823 906 866 q 918 729 928 781 l 762 0 l 624 0 m 431 1044 l 456 1166 l 595 1166 l 568 1044 l 431 1044 m 707 1044 l 733 1166 l 871 1166 l 846 1044 l 707 1044 z "},"Å":{"ha":831,"x_min":69,"x_max":935,"o":"m 753 607 q 752 655 758 633 q 731 694 746 677 q 693 720 716 710 q 640 729 670 729 l 501 729 q 446 720 473 729 q 396 693 418 710 q 358 654 374 677 q 336 607 342 632 l 286 364 l 701 364 l 753 607 m 753 1069 q 752 1107 757 1089 q 735 1138 747 1124 q 705 1159 723 1151 q 664 1166 686 1166 q 619 1159 641 1166 q 579 1138 597 1151 q 549 1107 562 1124 q 532 1069 536 1089 q 533 1031 528 1049 q 550 1001 538 1014 q 581 980 562 987 q 623 972 600 972 q 667 980 646 972 q 707 1001 689 987 q 737 1031 725 1014 q 753 1069 749 1049 m 624 0 l 675 243 l 260 243 l 208 0 l 69 0 l 225 729 q 258 812 235 773 q 321 885 281 851 q 501 968 401 951 q 476 1069 463 1010 q 501 1126 483 1100 q 547 1173 519 1152 q 608 1204 576 1193 q 675 1215 640 1215 q 736 1204 709 1215 q 782 1173 762 1193 q 809 1126 803 1152 q 810 1069 816 1100 q 786 1014 804 1039 q 742 968 769 989 q 827 939 790 960 q 888 885 864 918 q 918 729 935 819 l 762 0 l 624 0 z "},"Æ":{"ha":1178,"x_min":69,"x_max":1315,"o":"m 753 607 q 752 655 758 633 q 731 694 746 677 q 693 720 716 710 q 640 729 670 729 l 501 729 q 446 720 473 729 q 396 693 418 710 q 358 654 374 677 q 336 607 342 632 l 286 364 l 701 364 l 753 607 m 900 0 q 718 71 785 0 q 675 243 654 140 l 260 243 l 208 0 l 69 0 l 225 729 q 264 822 235 780 q 343 900 294 864 q 443 954 391 936 q 553 972 495 972 l 636 972 q 738 955 694 972 q 815 904 782 938 l 831 972 l 1315 972 l 1264 729 l 918 729 l 879 547 l 1086 547 l 1060 425 l 851 425 l 840 364 q 841 316 835 338 q 861 278 846 294 q 900 252 876 262 q 953 243 923 243 l 1161 243 l 1108 0 l 900 0 z "},"Ç":{"ha":831,"x_min":100,"x_max":968,"o":"m 505 0 l 482 -52 q 514 -64 500 -55 q 537 -86 528 -73 q 550 -114 547 -98 q 550 -146 553 -130 q 534 -184 546 -166 q 504 -215 522 -201 q 464 -235 486 -228 q 419 -243 442 -243 l 307 -243 l 330 -207 l 428 -207 q 455 -202 441 -207 q 480 -189 469 -197 q 499 -169 491 -180 q 510 -146 507 -158 q 509 -122 513 -134 q 498 -103 506 -111 q 479 -90 490 -94 q 453 -85 467 -85 l 383 -85 l 424 0 l 346 0 q 167 72 231 0 q 121 243 100 142 l 225 729 q 264 822 235 780 q 343 900 294 864 q 443 954 391 936 q 553 972 495 972 l 968 972 l 918 729 l 501 729 q 446 720 473 729 q 396 693 418 710 q 358 654 374 677 q 336 607 342 632 l 286 364 q 286 317 280 339 q 308 278 292 295 q 347 252 323 262 q 399 243 370 243 l 814 243 l 762 0 l 505 0 z "},"È":{"ha":693,"x_min":111,"x_max":831,"o":"m 346 0 q 165 71 230 0 q 121 149 132 106 q 121 243 111 192 l 277 972 l 831 972 l 779 729 l 364 729 l 325 547 l 602 547 l 575 425 l 297 425 l 286 364 q 286 316 280 338 q 307 278 292 294 q 346 252 322 262 q 399 243 369 243 l 675 243 l 624 0 l 346 0 m 528 1044 l 453 1215 l 564 1215 l 610 1044 l 528 1044 z "},"É":{"ha":693,"x_min":111,"x_max":831,"o":"m 346 0 q 165 71 230 0 q 121 149 132 106 q 121 243 111 192 l 277 972 l 831 972 l 779 729 l 364 729 l 325 547 l 602 547 l 575 425 l 297 425 l 286 364 q 286 316 280 338 q 307 278 292 294 q 346 252 322 262 q 399 243 369 243 l 675 243 l 624 0 l 346 0 m 610 1044 l 528 1044 l 646 1215 l 757 1215 l 610 1044 z "},"Ê":{"ha":693,"x_min":111,"x_max":831,"o":"m 346 0 q 165 71 230 0 q 121 149 132 106 q 121 243 111 192 l 277 972 l 831 972 l 779 729 l 364 729 l 325 547 l 602 547 l 575 425 l 297 425 l 286 364 q 286 316 280 338 q 307 278 292 294 q 346 252 322 262 q 399 243 369 243 l 675 243 l 624 0 l 346 0 m 652 1044 l 590 1147 l 486 1044 l 403 1044 l 549 1215 l 661 1215 l 734 1044 l 652 1044 z "},"Ë":{"ha":693,"x_min":111,"x_max":831,"o":"m 346 0 q 165 71 230 0 q 121 149 132 106 q 121 243 111 192 l 277 972 l 831 972 l 779 729 l 364 729 l 325 547 l 602 547 l 575 425 l 297 425 l 286 364 q 286 316 280 338 q 307 278 292 294 q 346 252 322 262 q 399 243 369 243 l 675 243 l 624 0 l 346 0 m 361 1044 l 386 1166 l 525 1166 l 500 1044 l 361 1044 m 637 1044 l 664 1166 l 802 1166 l 777 1044 l 637 1044 z "},"Ì":{"ha":415,"x_min":69,"x_max":553,"o":"m 69 0 l 121 243 l 191 243 l 294 729 l 225 729 l 277 972 l 553 972 l 501 729 l 432 729 l 329 243 l 399 243 l 346 0 l 69 0 m 389 1044 l 315 1215 l 425 1215 l 471 1044 l 389 1044 z "},"Í":{"ha":415,"x_min":69,"x_max":618,"o":"m 69 0 l 121 243 l 191 243 l 294 729 l 225 729 l 277 972 l 553 972 l 501 729 l 432 729 l 329 243 l 399 243 l 346 0 l 69 0 m 471 1044 l 389 1044 l 509 1215 l 618 1215 l 471 1044 z "},"Î":{"ha":415,"x_min":69,"x_max":597,"o":"m 69 0 l 121 243 l 191 243 l 294 729 l 225 729 l 277 972 l 553 972 l 501 729 l 432 729 l 329 243 l 399 243 l 346 0 l 69 0 m 513 1044 l 452 1147 l 347 1044 l 264 1044 l 411 1215 l 522 1215 l 597 1044 l 513 1044 z "},"Ï":{"ha":415,"x_min":69,"x_max":664,"o":"m 69 0 l 121 243 l 191 243 l 294 729 l 225 729 l 277 972 l 553 972 l 501 729 l 432 729 l 329 243 l 399 243 l 346 0 l 69 0 m 222 1044 l 248 1166 l 386 1166 l 361 1044 l 222 1044 m 500 1044 l 525 1166 l 664 1166 l 637 1044 l 500 1044 z "},"Ð":{"ha":935,"x_min":125,"x_max":1031,"o":"m 856 607 q 855 654 861 632 q 834 693 849 677 q 796 720 819 710 q 745 729 773 729 l 467 729 l 428 547 l 705 547 l 679 425 l 401 425 l 364 243 l 642 243 q 698 252 671 243 q 747 278 725 262 q 784 316 768 294 q 804 364 799 338 l 856 607 m 918 243 q 878 149 907 192 q 800 71 849 106 q 589 0 703 0 l 172 0 l 262 425 l 125 425 l 151 547 l 289 547 l 379 972 l 796 972 q 897 954 852 972 q 977 900 942 936 q 1020 822 1009 864 q 1021 729 1031 780 l 918 243 z "},"Ñ":{"ha":831,"x_min":69,"x_max":928,"o":"m 624 0 l 753 607 q 752 655 758 633 q 731 694 746 677 q 693 720 716 710 q 640 729 670 729 l 501 729 q 446 720 473 729 q 396 693 418 710 q 358 654 374 677 q 336 607 342 632 l 208 0 l 69 0 l 225 729 q 343 900 243 829 q 442 954 389 936 q 553 972 495 972 l 692 972 q 872 901 810 972 q 917 823 906 866 q 918 729 928 781 l 762 0 l 624 0 m 856 1093 q 785 1057 822 1069 q 707 1044 749 1044 q 677 1051 693 1044 q 643 1069 661 1058 q 608 1087 624 1081 q 578 1093 593 1093 q 500 1081 537 1093 q 431 1044 463 1069 l 452 1141 q 521 1179 484 1167 q 599 1190 558 1190 q 664 1166 626 1190 q 698 1148 682 1155 q 728 1141 714 1141 q 805 1154 768 1141 q 876 1190 842 1166 l 856 1093 z "},"Ò":{"ha":831,"x_min":111,"x_max":937,"o":"m 753 607 q 751 654 758 632 q 730 693 745 677 q 692 720 715 710 q 640 729 669 729 l 501 729 q 446 720 473 729 q 396 693 418 710 q 358 654 374 677 q 336 607 342 632 l 286 364 q 286 317 280 339 q 308 278 292 295 q 347 252 323 262 q 399 243 370 243 l 538 243 q 594 252 567 243 q 643 278 621 262 q 681 316 665 294 q 701 364 696 338 l 753 607 m 814 243 q 694 71 793 141 q 485 0 602 0 l 346 0 q 165 71 230 0 q 121 150 132 106 q 121 243 111 193 l 225 729 q 343 900 243 829 q 442 954 389 936 q 553 972 495 972 l 692 972 q 872 900 805 972 q 918 729 937 829 l 814 243 m 597 1044 l 522 1215 l 633 1215 l 679 1044 l 597 1044 z "},"Ó":{"ha":831,"x_min":111,"x_max":937,"o":"m 753 607 q 751 654 758 632 q 730 693 745 677 q 692 720 715 710 q 640 729 669 729 l 501 729 q 446 720 473 729 q 396 693 418 710 q 358 654 374 677 q 336 607 342 632 l 286 364 q 286 317 280 339 q 308 278 292 295 q 347 252 323 262 q 399 243 370 243 l 538 243 q 594 252 567 243 q 643 278 621 262 q 681 316 665 294 q 701 364 696 338 l 753 607 m 814 243 q 694 71 793 141 q 485 0 602 0 l 346 0 q 165 71 230 0 q 121 150 132 106 q 121 243 111 193 l 225 729 q 343 900 243 829 q 442 954 389 936 q 553 972 495 972 l 692 972 q 872 900 805 972 q 918 729 937 829 l 814 243 m 679 1044 l 597 1044 l 715 1215 l 827 1215 l 679 1044 z "},"Ô":{"ha":831,"x_min":111,"x_max":937,"o":"m 753 607 q 751 654 758 632 q 730 693 745 677 q 692 720 715 710 q 640 729 669 729 l 501 729 q 446 720 473 729 q 396 693 418 710 q 358 654 374 677 q 336 607 342 632 l 286 364 q 286 317 280 339 q 308 278 292 295 q 347 252 323 262 q 399 243 370 243 l 538 243 q 594 252 567 243 q 643 278 621 262 q 681 316 665 294 q 701 364 696 338 l 753 607 m 814 243 q 694 71 793 141 q 485 0 602 0 l 346 0 q 165 71 230 0 q 121 150 132 106 q 121 243 111 193 l 225 729 q 343 900 243 829 q 442 954 389 936 q 553 972 495 972 l 692 972 q 872 900 805 972 q 918 729 937 829 l 814 243 m 721 1044 l 660 1147 l 555 1044 l 471 1044 l 618 1215 l 730 1215 l 804 1044 l 721 1044 z "},"Õ":{"ha":831,"x_min":111,"x_max":937,"o":"m 753 607 q 751 654 758 632 q 730 693 745 677 q 692 720 715 710 q 640 729 669 729 l 501 729 q 446 720 473 729 q 396 693 418 710 q 358 654 374 677 q 336 607 342 632 l 286 364 q 286 317 280 339 q 308 278 292 295 q 347 252 323 262 q 399 243 370 243 l 538 243 q 594 252 567 243 q 643 278 621 262 q 681 316 665 294 q 701 364 696 338 l 753 607 m 814 243 q 694 71 793 141 q 485 0 602 0 l 346 0 q 165 71 230 0 q 121 150 132 106 q 121 243 111 193 l 225 729 q 343 900 243 829 q 442 954 389 936 q 553 972 495 972 l 692 972 q 872 900 805 972 q 918 729 937 829 l 814 243 m 856 1093 q 785 1057 822 1069 q 707 1044 749 1044 q 677 1051 693 1044 q 643 1069 661 1058 q 608 1087 624 1081 q 578 1093 593 1093 q 500 1081 537 1093 q 431 1044 463 1069 l 452 1141 q 521 1179 484 1167 q 599 1190 558 1190 q 664 1166 626 1190 q 698 1148 682 1155 q 728 1141 714 1141 q 805 1154 768 1141 q 876 1190 842 1166 l 856 1093 z "},"Ö":{"ha":831,"x_min":111,"x_max":937,"o":"m 753 607 q 751 654 758 632 q 730 693 745 677 q 692 720 715 710 q 640 729 669 729 l 501 729 q 446 720 473 729 q 396 693 418 710 q 358 654 374 677 q 336 607 342 632 l 286 364 q 286 317 280 339 q 308 278 292 295 q 347 252 323 262 q 399 243 370 243 l 538 243 q 594 252 567 243 q 643 278 621 262 q 681 316 665 294 q 701 364 696 338 l 753 607 m 814 243 q 694 71 793 141 q 485 0 602 0 l 346 0 q 165 71 230 0 q 121 150 132 106 q 121 243 111 193 l 225 729 q 343 900 243 829 q 442 954 389 936 q 553 972 495 972 l 692 972 q 872 900 805 972 q 918 729 937 829 l 814 243 m 431 1044 l 456 1166 l 595 1166 l 568 1044 l 431 1044 m 707 1044 l 733 1166 l 871 1166 l 846 1044 l 707 1044 z "},"×":{"ha":648,"x_min":126,"x_max":703,"o":"m 542 201 l 400 355 l 191 201 l 126 271 l 335 425 l 192 579 l 286 648 l 431 494 l 637 648 l 703 579 l 493 425 l 636 271 l 542 201 z "},"Ø":{"ha":831,"x_min":7,"x_max":1031,"o":"m 753 607 q 754 636 756 623 q 749 665 753 650 l 328 262 q 399 243 360 243 l 538 243 q 594 252 567 243 q 643 278 621 262 q 681 316 665 294 q 701 364 696 338 l 753 607 m 710 710 q 676 725 693 720 q 640 729 660 729 l 501 729 q 446 720 473 729 q 396 693 418 710 q 358 654 374 677 q 336 607 342 632 l 286 364 q 283 335 282 349 q 289 307 285 321 l 710 710 m 916 825 q 922 778 922 802 q 918 729 922 754 l 814 243 q 694 71 793 141 q 485 0 602 0 l 346 0 q 150 92 215 0 l 56 0 l 7 36 l 122 147 q 116 194 116 170 q 121 243 115 217 l 225 729 q 343 900 243 829 q 442 954 389 936 q 553 972 495 972 l 692 972 q 889 880 822 972 l 982 972 l 1031 936 l 916 825 z "},"Ù":{"ha":831,"x_min":111,"x_max":968,"o":"m 814 243 q 694 71 793 141 q 485 0 602 0 l 346 0 q 165 71 230 0 q 121 150 132 106 q 121 243 111 193 l 277 972 l 414 972 l 286 364 q 286 317 280 339 q 308 278 292 295 q 347 252 323 262 q 399 243 370 243 l 538 243 q 594 252 567 243 q 643 278 621 262 q 681 316 665 294 q 701 364 696 338 l 831 972 l 968 972 l 814 243 m 597 1044 l 522 1215 l 633 1215 l 679 1044 l 597 1044 z "},"Ú":{"ha":831,"x_min":111,"x_max":968,"o":"m 814 243 q 694 71 793 141 q 485 0 602 0 l 346 0 q 165 71 230 0 q 121 150 132 106 q 121 243 111 193 l 277 972 l 414 972 l 286 364 q 286 317 280 339 q 308 278 292 295 q 347 252 323 262 q 399 243 370 243 l 538 243 q 594 252 567 243 q 643 278 621 262 q 681 316 665 294 q 701 364 696 338 l 831 972 l 968 972 l 814 243 m 679 1044 l 597 1044 l 715 1215 l 827 1215 l 679 1044 z "},"Û":{"ha":831,"x_min":111,"x_max":968,"o":"m 814 243 q 694 71 793 141 q 485 0 602 0 l 346 0 q 165 71 230 0 q 121 150 132 106 q 121 243 111 193 l 277 972 l 414 972 l 286 364 q 286 317 280 339 q 308 278 292 295 q 347 252 323 262 q 399 243 370 243 l 538 243 q 594 252 567 243 q 643 278 621 262 q 681 316 665 294 q 701 364 696 338 l 831 972 l 968 972 l 814 243 m 721 1044 l 660 1147 l 555 1044 l 471 1044 l 618 1215 l 730 1215 l 804 1044 l 721 1044 z "},"Ü":{"ha":831,"x_min":111,"x_max":968,"o":"m 814 243 q 694 71 793 141 q 485 0 602 0 l 346 0 q 165 71 230 0 q 121 150 132 106 q 121 243 111 193 l 277 972 l 414 972 l 286 364 q 286 317 280 339 q 308 278 292 295 q 347 252 323 262 q 399 243 370 243 l 538 243 q 594 252 567 243 q 643 278 621 262 q 681 316 665 294 q 701 364 696 338 l 831 972 l 968 972 l 814 243 m 431 1044 l 456 1166 l 595 1166 l 568 1044 l 431 1044 m 707 1044 l 733 1166 l 871 1166 l 846 1044 l 707 1044 z "},"Ý":{"ha":831,"x_min":163,"x_max":968,"o":"m 876 534 q 757 363 854 433 q 547 292 663 292 l 485 0 l 346 0 l 408 292 q 228 363 294 292 q 183 534 163 433 l 277 972 l 414 972 l 347 656 q 348 609 342 631 q 370 570 355 587 q 409 544 385 553 q 461 534 432 534 l 599 534 q 655 544 628 534 q 705 570 683 553 q 742 608 727 586 q 762 656 757 630 l 831 972 l 968 972 l 876 534 m 679 1044 l 597 1044 l 715 1215 l 827 1215 l 679 1044 z "},"Þ":{"ha":831,"x_min":69,"x_max":882,"o":"m 644 425 q 644 460 648 444 q 627 489 639 477 q 598 509 616 502 q 558 517 580 517 l 317 517 l 278 335 l 519 335 q 562 342 541 335 q 600 361 583 349 q 629 390 617 374 q 644 425 641 406 m 860 456 q 742 285 837 356 q 640 231 691 249 q 529 212 588 212 l 253 212 l 208 0 l 69 0 l 277 972 l 414 972 l 370 760 l 646 760 q 749 741 705 760 q 827 688 793 723 q 871 609 859 652 q 871 517 882 567 l 860 456 z "},"ß":{"ha":831,"x_min":43,"x_max":937,"o":"m 814 243 q 774 150 804 193 q 696 72 744 108 q 485 0 599 0 l 346 0 l 399 243 l 501 243 q 543 250 522 243 q 581 270 564 258 q 609 299 597 283 q 625 335 621 316 q 625 370 629 353 q 608 398 620 386 q 578 418 596 410 q 539 425 561 425 l 436 425 l 463 547 l 567 547 q 608 554 588 547 q 646 574 629 562 q 674 602 663 586 q 690 637 686 618 q 689 673 694 656 q 673 702 684 690 q 644 722 661 715 q 606 729 627 729 l 467 729 q 425 722 446 729 q 388 702 405 715 q 360 673 372 690 q 345 637 348 656 l 182 -122 l 43 -122 l 225 729 q 343 901 243 831 q 553 972 435 972 l 692 972 q 872 900 805 972 q 918 729 937 829 l 914 717 q 885 642 905 678 q 831 575 864 606 q 758 520 797 543 q 673 486 720 498 q 747 450 716 473 q 795 394 777 426 q 818 323 813 362 q 814 243 823 285 z "},"à":{"ha":831,"x_min":100,"x_max":913,"o":"m 726 486 q 727 534 732 512 q 706 572 721 556 q 667 598 690 589 q 614 607 644 607 l 475 607 q 419 597 446 607 q 370 572 392 588 q 332 533 347 555 q 311 486 316 511 l 286 364 q 286 317 280 339 q 308 278 292 295 q 347 252 323 262 q 399 243 370 243 l 538 243 q 593 252 566 243 q 643 278 621 262 q 680 317 665 295 q 701 364 696 339 l 726 486 m 624 0 l 640 82 q 620 47 636 62 q 578 20 604 31 q 533 4 556 9 q 485 0 510 0 l 346 0 q 167 72 231 0 q 121 243 100 142 l 199 607 q 239 701 209 658 q 315 779 269 743 q 528 850 414 850 l 665 850 q 769 833 724 850 q 846 781 814 817 q 890 607 913 709 l 762 0 l 624 0 m 571 924 l 496 1093 l 607 1093 l 654 924 l 571 924 z "},"á":{"ha":831,"x_min":100,"x_max":913,"o":"m 726 486 q 727 534 732 512 q 706 572 721 556 q 667 598 690 589 q 614 607 644 607 l 475 607 q 419 597 446 607 q 370 572 392 588 q 332 533 347 555 q 311 486 316 511 l 286 364 q 286 317 280 339 q 308 278 292 295 q 347 252 323 262 q 399 243 370 243 l 538 243 q 593 252 566 243 q 643 278 621 262 q 680 317 665 295 q 701 364 696 339 l 726 486 m 624 0 l 640 82 q 620 47 636 62 q 578 20 604 31 q 533 4 556 9 q 485 0 510 0 l 346 0 q 167 72 231 0 q 121 243 100 142 l 199 607 q 239 701 209 658 q 315 779 269 743 q 528 850 414 850 l 665 850 q 769 833 724 850 q 846 781 814 817 q 890 607 913 709 l 762 0 l 624 0 m 654 924 l 571 924 l 689 1093 l 800 1093 l 654 924 z "},"â":{"ha":831,"x_min":100,"x_max":913,"o":"m 726 486 q 727 534 732 512 q 706 572 721 556 q 667 598 690 589 q 614 607 644 607 l 475 607 q 419 597 446 607 q 370 572 392 588 q 332 533 347 555 q 311 486 316 511 l 286 364 q 286 317 280 339 q 308 278 292 295 q 347 252 323 262 q 399 243 370 243 l 538 243 q 593 252 566 243 q 643 278 621 262 q 680 317 665 295 q 701 364 696 339 l 726 486 m 624 0 l 640 82 q 620 47 636 62 q 578 20 604 31 q 533 4 556 9 q 485 0 510 0 l 346 0 q 167 72 231 0 q 121 243 100 142 l 199 607 q 239 701 209 658 q 315 779 269 743 q 528 850 414 850 l 665 850 q 769 833 724 850 q 846 781 814 817 q 890 607 913 709 l 762 0 l 624 0 m 694 924 l 633 1025 l 529 924 l 446 924 l 591 1093 l 704 1093 l 779 924 l 694 924 z "},"ã":{"ha":831,"x_min":100,"x_max":913,"o":"m 726 486 q 727 534 732 512 q 706 572 721 556 q 667 598 690 589 q 614 607 644 607 l 475 607 q 419 597 446 607 q 370 572 392 588 q 332 533 347 555 q 311 486 316 511 l 286 364 q 286 317 280 339 q 308 278 292 295 q 347 252 323 262 q 399 243 370 243 l 538 243 q 593 252 566 243 q 643 278 621 262 q 680 317 665 295 q 701 364 696 339 l 726 486 m 624 0 l 640 82 q 620 47 636 62 q 578 20 604 31 q 533 4 556 9 q 485 0 510 0 l 346 0 q 167 72 231 0 q 121 243 100 142 l 199 607 q 239 701 209 658 q 315 779 269 743 q 528 850 414 850 l 665 850 q 769 833 724 850 q 846 781 814 817 q 890 607 913 709 l 762 0 l 624 0 m 831 972 q 759 935 795 947 q 682 924 723 924 q 616 947 654 924 q 553 972 580 972 q 474 961 512 972 q 404 924 437 949 l 425 1021 q 495 1058 458 1046 q 574 1069 533 1069 q 604 1063 587 1069 q 637 1044 620 1057 q 673 1027 656 1033 q 703 1021 689 1021 q 779 1033 743 1021 q 850 1069 815 1044 l 831 972 z "},"ä":{"ha":831,"x_min":100,"x_max":913,"o":"m 726 486 q 727 534 732 512 q 706 572 721 556 q 667 598 690 589 q 614 607 644 607 l 475 607 q 419 597 446 607 q 370 572 392 588 q 332 533 347 555 q 311 486 316 511 l 286 364 q 286 317 280 339 q 308 278 292 295 q 347 252 323 262 q 399 243 370 243 l 538 243 q 593 252 566 243 q 643 278 621 262 q 680 317 665 295 q 701 364 696 339 l 726 486 m 624 0 l 640 82 q 620 47 636 62 q 578 20 604 31 q 533 4 556 9 q 485 0 510 0 l 346 0 q 167 72 231 0 q 121 243 100 142 l 199 607 q 239 701 209 658 q 315 779 269 743 q 528 850 414 850 l 665 850 q 769 833 724 850 q 846 781 814 817 q 890 607 913 709 l 762 0 l 624 0 m 404 924 l 431 1044 l 568 1044 l 543 924 l 404 924 m 682 924 l 707 1044 l 846 1044 l 821 924 l 682 924 z "},"å":{"ha":831,"x_min":100,"x_max":913,"o":"m 726 486 q 727 534 732 512 q 706 572 721 556 q 667 598 690 589 q 614 607 644 607 l 475 607 q 419 597 446 607 q 370 572 392 588 q 332 533 347 555 q 311 486 316 511 l 286 364 q 286 317 280 339 q 308 278 292 295 q 347 252 323 262 q 399 243 370 243 l 538 243 q 593 252 566 243 q 643 278 621 262 q 680 317 665 295 q 701 364 696 339 l 726 486 m 753 1069 q 752 1107 757 1089 q 735 1138 747 1124 q 705 1159 723 1151 q 664 1166 686 1166 q 619 1159 641 1166 q 579 1138 597 1151 q 549 1107 562 1124 q 532 1069 536 1089 q 533 1031 528 1049 q 550 1001 538 1014 q 581 980 562 987 q 623 972 600 972 q 667 980 646 972 q 707 1001 689 987 q 737 1031 725 1014 q 753 1069 749 1049 m 624 0 l 640 82 q 620 47 636 62 q 578 20 604 31 q 533 4 556 9 q 485 0 510 0 l 346 0 q 167 72 231 0 q 121 243 100 142 l 199 607 q 239 701 209 658 q 315 779 269 743 q 528 850 414 850 l 665 850 q 769 833 724 850 q 846 781 814 817 q 890 607 913 709 l 762 0 l 624 0 m 810 1069 q 739 966 798 1008 q 612 924 682 924 q 550 934 578 924 q 503 966 522 945 q 477 1013 484 987 q 476 1069 470 1039 q 501 1126 483 1100 q 547 1173 519 1152 q 608 1204 576 1193 q 675 1215 640 1215 q 736 1204 709 1215 q 782 1173 762 1193 q 809 1126 803 1152 q 810 1069 816 1100 z "},"æ":{"ha":1247,"x_min":100,"x_max":1358,"o":"m 726 486 q 727 534 732 512 q 706 572 721 556 q 667 598 690 589 q 614 607 644 607 l 475 607 q 419 597 446 607 q 370 572 392 588 q 332 533 347 555 q 311 486 316 511 l 286 364 q 286 317 280 339 q 308 278 292 295 q 347 252 323 262 q 399 243 370 243 l 538 243 q 593 252 566 243 q 643 278 621 262 q 680 317 665 295 q 701 364 696 339 l 726 486 m 957 0 q 777 71 843 0 l 762 0 l 624 0 l 640 82 q 620 47 636 62 q 578 20 604 31 q 533 4 556 9 q 485 0 510 0 l 346 0 q 167 72 231 0 q 121 243 100 142 l 199 607 q 239 701 209 658 q 315 779 269 743 q 528 850 414 850 l 610 850 q 695 838 656 850 q 764 805 734 826 q 813 753 794 783 q 839 685 833 722 q 892 751 860 722 q 966 804 924 781 q 1137 850 1045 850 l 1358 850 l 1307 607 l 1029 607 q 974 597 1001 607 q 924 572 946 588 q 886 533 901 555 q 865 486 870 511 l 1141 486 l 1117 364 l 840 364 q 841 317 835 339 q 862 278 847 295 q 901 252 878 262 q 953 243 924 243 l 1229 243 l 1178 0 l 957 0 z "},"ç":{"ha":831,"x_min":100,"x_max":943,"o":"m 505 0 l 482 -52 q 514 -64 500 -55 q 537 -86 528 -73 q 550 -114 547 -98 q 550 -146 553 -130 q 534 -184 546 -166 q 504 -215 522 -201 q 464 -235 486 -228 q 419 -243 442 -243 l 307 -243 l 330 -207 l 428 -207 q 455 -202 441 -207 q 480 -189 469 -197 q 499 -169 491 -180 q 510 -146 507 -158 q 509 -122 513 -134 q 498 -103 506 -111 q 479 -90 490 -94 q 453 -85 467 -85 l 383 -85 l 424 0 l 346 0 q 167 72 231 0 q 121 243 100 142 l 199 607 q 239 701 209 658 q 315 779 269 743 q 528 850 414 850 l 943 850 l 890 607 l 475 607 q 419 597 446 607 q 370 572 392 588 q 332 533 347 555 q 311 486 316 511 l 286 364 q 286 317 280 339 q 308 278 292 295 q 347 252 323 262 q 399 243 370 243 l 814 243 l 762 0 l 505 0 z "},"è":{"ha":831,"x_min":100,"x_max":943,"o":"m 346 0 q 167 72 231 0 q 121 243 100 142 l 199 607 q 239 701 209 658 q 315 779 269 743 q 528 850 414 850 l 943 850 l 890 607 l 475 607 q 419 597 446 607 q 370 572 392 588 q 332 533 347 555 q 311 486 316 511 l 726 486 l 701 364 l 286 364 q 286 317 280 339 q 308 278 292 295 q 347 252 323 262 q 399 243 370 243 l 814 243 l 762 0 l 346 0 m 571 924 l 496 1093 l 607 1093 l 654 924 l 571 924 z "},"é":{"ha":831,"x_min":100,"x_max":943,"o":"m 346 0 q 167 72 231 0 q 121 243 100 142 l 199 607 q 239 701 209 658 q 315 779 269 743 q 528 850 414 850 l 943 850 l 890 607 l 475 607 q 419 597 446 607 q 370 572 392 588 q 332 533 347 555 q 311 486 316 511 l 726 486 l 701 364 l 286 364 q 286 317 280 339 q 308 278 292 295 q 347 252 323 262 q 399 243 370 243 l 814 243 l 762 0 l 346 0 m 654 924 l 571 924 l 689 1093 l 800 1093 l 654 924 z "},"ê":{"ha":831,"x_min":100,"x_max":943,"o":"m 346 0 q 167 72 231 0 q 121 243 100 142 l 199 607 q 239 701 209 658 q 315 779 269 743 q 528 850 414 850 l 943 850 l 890 607 l 475 607 q 419 597 446 607 q 370 572 392 588 q 332 533 347 555 q 311 486 316 511 l 726 486 l 701 364 l 286 364 q 286 317 280 339 q 308 278 292 295 q 347 252 323 262 q 399 243 370 243 l 814 243 l 762 0 l 346 0 m 694 924 l 633 1025 l 529 924 l 446 924 l 591 1093 l 704 1093 l 779 924 l 694 924 z "},"ë":{"ha":831,"x_min":100,"x_max":943,"o":"m 346 0 q 167 72 231 0 q 121 243 100 142 l 199 607 q 239 701 209 658 q 315 779 269 743 q 528 850 414 850 l 943 850 l 890 607 l 475 607 q 419 597 446 607 q 370 572 392 588 q 332 533 347 555 q 311 486 316 511 l 726 486 l 701 364 l 286 364 q 286 317 280 339 q 308 278 292 295 q 347 252 323 262 q 399 243 370 243 l 814 243 l 762 0 l 346 0 m 404 924 l 431 1044 l 568 1044 l 543 924 l 404 924 m 682 924 l 707 1044 l 846 1044 l 821 924 l 682 924 z "},"ì":{"ha":277,"x_min":69,"x_max":389,"o":"m 69 0 l 250 850 l 389 850 l 208 0 l 69 0 m 294 924 l 218 1093 l 329 1093 l 376 924 l 294 924 z "},"í":{"ha":277,"x_min":69,"x_max":522,"o":"m 69 0 l 250 850 l 389 850 l 208 0 l 69 0 m 376 924 l 294 924 l 412 1093 l 522 1093 l 376 924 z "},"î":{"ha":277,"x_min":69,"x_max":501,"o":"m 69 0 l 250 850 l 389 850 l 208 0 l 69 0 m 418 924 l 355 1025 l 253 924 l 170 924 l 315 1093 l 427 1093 l 501 924 l 418 924 z "},"ï":{"ha":277,"x_min":69,"x_max":568,"o":"m 69 0 l 250 850 l 389 850 l 208 0 l 69 0 m 127 924 l 153 1044 l 292 1044 l 267 924 l 127 924 m 404 924 l 431 1044 l 568 1044 l 543 924 l 404 924 z "},"ð":{"ha":831,"x_min":100,"x_max":1121,"o":"m 726 486 q 726 533 732 511 q 705 572 720 555 q 666 597 689 588 q 614 607 642 607 l 475 607 q 419 597 446 607 q 370 572 392 588 q 332 533 347 555 q 311 486 316 511 l 286 364 q 286 317 280 339 q 308 278 292 295 q 347 252 323 262 q 399 243 370 243 l 538 243 q 594 252 567 243 q 643 278 621 262 q 681 316 665 294 q 701 364 696 338 l 726 486 m 956 911 l 814 243 q 694 71 793 141 q 485 0 602 0 l 346 0 q 167 72 231 0 q 121 243 100 142 l 199 607 q 239 701 209 658 q 315 779 269 743 q 528 850 414 850 l 665 850 q 711 845 690 850 q 750 831 732 841 q 787 770 793 808 l 817 911 l 677 911 l 704 1034 l 1121 1034 l 1093 911 l 956 911 z "},"ñ":{"ha":831,"x_min":69,"x_max":913,"o":"m 624 0 l 726 486 q 727 534 732 512 q 706 572 721 556 q 667 598 690 589 q 614 607 644 607 l 475 607 q 419 597 446 607 q 370 572 392 588 q 332 533 347 555 q 311 486 316 511 l 208 0 l 69 0 l 199 607 q 315 779 219 707 q 417 832 363 815 q 528 850 470 850 l 665 850 q 769 833 724 850 q 846 781 814 817 q 890 607 913 709 l 762 0 l 624 0 m 831 972 q 759 935 795 947 q 682 924 723 924 q 616 947 654 924 q 553 972 580 972 q 474 961 512 972 q 404 924 437 949 l 425 1021 q 495 1058 458 1046 q 574 1069 533 1069 q 604 1063 587 1069 q 637 1044 620 1057 q 673 1027 656 1033 q 703 1021 689 1021 q 779 1033 743 1021 q 850 1069 815 1044 l 831 972 z "},"ò":{"ha":831,"x_min":111,"x_max":902,"o":"m 726 486 q 726 533 732 511 q 705 572 720 555 q 666 597 689 588 q 614 607 642 607 l 475 607 q 419 597 446 607 q 370 572 392 588 q 332 533 347 555 q 311 486 316 511 l 286 364 q 286 317 280 339 q 308 278 292 295 q 347 252 323 262 q 399 243 370 243 l 538 243 q 594 252 567 243 q 643 278 621 262 q 681 316 665 294 q 701 364 696 338 l 726 486 m 814 243 q 694 71 793 141 q 485 0 602 0 l 346 0 q 165 71 230 0 q 121 150 132 106 q 121 243 111 193 l 199 607 q 315 779 219 707 q 417 832 363 815 q 528 850 470 850 l 665 850 q 768 832 724 850 q 846 779 812 815 q 890 701 878 743 q 890 607 902 658 l 814 243 m 571 924 l 496 1093 l 607 1093 l 654 924 l 571 924 z "},"ó":{"ha":831,"x_min":111,"x_max":902,"o":"m 726 486 q 726 533 732 511 q 705 572 720 555 q 666 597 689 588 q 614 607 642 607 l 475 607 q 419 597 446 607 q 370 572 392 588 q 332 533 347 555 q 311 486 316 511 l 286 364 q 286 317 280 339 q 308 278 292 295 q 347 252 323 262 q 399 243 370 243 l 538 243 q 594 252 567 243 q 643 278 621 262 q 681 316 665 294 q 701 364 696 338 l 726 486 m 814 243 q 694 71 793 141 q 485 0 602 0 l 346 0 q 165 71 230 0 q 121 150 132 106 q 121 243 111 193 l 199 607 q 315 779 219 707 q 417 832 363 815 q 528 850 470 850 l 665 850 q 768 832 724 850 q 846 779 812 815 q 890 701 878 743 q 890 607 902 658 l 814 243 m 654 924 l 571 924 l 689 1093 l 800 1093 l 654 924 z "},"ô":{"ha":831,"x_min":111,"x_max":902,"o":"m 726 486 q 726 533 732 511 q 705 572 720 555 q 666 597 689 588 q 614 607 642 607 l 475 607 q 419 597 446 607 q 370 572 392 588 q 332 533 347 555 q 311 486 316 511 l 286 364 q 286 317 280 339 q 308 278 292 295 q 347 252 323 262 q 399 243 370 243 l 538 243 q 594 252 567 243 q 643 278 621 262 q 681 316 665 294 q 701 364 696 338 l 726 486 m 814 243 q 694 71 793 141 q 485 0 602 0 l 346 0 q 165 71 230 0 q 121 150 132 106 q 121 243 111 193 l 199 607 q 315 779 219 707 q 417 832 363 815 q 528 850 470 850 l 665 850 q 768 832 724 850 q 846 779 812 815 q 890 701 878 743 q 890 607 902 658 l 814 243 m 694 924 l 633 1025 l 529 924 l 446 924 l 591 1093 l 704 1093 l 779 924 l 694 924 z "},"õ":{"ha":831,"x_min":111,"x_max":902,"o":"m 726 486 q 726 533 732 511 q 705 572 720 555 q 666 597 689 588 q 614 607 642 607 l 475 607 q 419 597 446 607 q 370 572 392 588 q 332 533 347 555 q 311 486 316 511 l 286 364 q 286 317 280 339 q 308 278 292 295 q 347 252 323 262 q 399 243 370 243 l 538 243 q 594 252 567 243 q 643 278 621 262 q 681 316 665 294 q 701 364 696 338 l 726 486 m 814 243 q 694 71 793 141 q 485 0 602 0 l 346 0 q 165 71 230 0 q 121 150 132 106 q 121 243 111 193 l 199 607 q 315 779 219 707 q 417 832 363 815 q 528 850 470 850 l 665 850 q 768 832 724 850 q 846 779 812 815 q 890 701 878 743 q 890 607 902 658 l 814 243 m 831 972 q 759 935 795 947 q 682 924 723 924 q 616 947 654 924 q 553 972 580 972 q 474 961 512 972 q 404 924 437 949 l 425 1021 q 495 1058 458 1046 q 574 1069 533 1069 q 604 1063 587 1069 q 637 1044 620 1057 q 673 1027 656 1033 q 703 1021 689 1021 q 779 1033 743 1021 q 850 1069 815 1044 l 831 972 z "},"ö":{"ha":831,"x_min":111,"x_max":902,"o":"m 726 486 q 726 533 732 511 q 705 572 720 555 q 666 597 689 588 q 614 607 642 607 l 475 607 q 419 597 446 607 q 370 572 392 588 q 332 533 347 555 q 311 486 316 511 l 286 364 q 286 317 280 339 q 308 278 292 295 q 347 252 323 262 q 399 243 370 243 l 538 243 q 594 252 567 243 q 643 278 621 262 q 681 316 665 294 q 701 364 696 338 l 726 486 m 814 243 q 694 71 793 141 q 485 0 602 0 l 346 0 q 165 71 230 0 q 121 150 132 106 q 121 243 111 193 l 199 607 q 315 779 219 707 q 417 832 363 815 q 528 850 470 850 l 665 850 q 768 832 724 850 q 846 779 812 815 q 890 701 878 743 q 890 607 902 658 l 814 243 m 404 924 l 431 1044 l 568 1044 l 543 924 l 404 924 m 682 924 l 707 1044 l 846 1044 l 821 924 l 682 924 z "},"÷":{"ha":693,"x_min":150,"x_max":724,"o":"m 267 85 l 304 256 l 498 256 l 461 85 l 267 85 m 150 376 l 170 473 l 724 473 l 704 376 l 150 376 m 375 596 l 412 765 l 607 765 l 570 596 l 375 596 z "},"ø":{"ha":831,"x_min":7,"x_max":1004,"o":"m 669 597 q 644 605 658 603 q 614 607 629 607 l 475 607 q 419 597 446 607 q 370 572 392 588 q 332 533 347 555 q 311 486 316 511 l 286 364 q 284 323 280 342 q 302 286 289 303 l 669 597 m 726 486 q 710 566 736 530 l 343 254 q 369 246 355 249 q 399 243 383 243 l 538 243 q 594 252 567 243 q 643 278 621 262 q 681 316 665 294 q 701 364 696 338 l 726 486 m 886 714 q 890 607 903 665 l 814 243 q 694 71 793 141 q 485 0 602 0 l 346 0 q 150 92 213 0 l 41 0 l 7 36 l 126 138 q 116 188 118 161 q 121 243 115 214 l 199 607 q 315 779 219 707 q 417 832 363 815 q 528 850 470 850 l 665 850 q 863 760 798 850 l 971 850 l 1004 814 l 886 714 z "},"ù":{"ha":831,"x_min":111,"x_max":943,"o":"m 814 243 q 694 71 793 141 q 485 0 602 0 l 346 0 q 165 71 230 0 q 121 150 132 106 q 121 243 111 193 l 250 850 l 389 850 l 286 364 q 286 317 280 339 q 308 278 292 295 q 347 252 323 262 q 399 243 370 243 l 538 243 q 594 252 567 243 q 643 278 621 262 q 681 316 665 294 q 701 364 696 338 l 804 850 l 943 850 l 814 243 m 571 924 l 496 1093 l 607 1093 l 654 924 l 571 924 z "},"ú":{"ha":831,"x_min":111,"x_max":943,"o":"m 814 243 q 694 71 793 141 q 485 0 602 0 l 346 0 q 165 71 230 0 q 121 150 132 106 q 121 243 111 193 l 250 850 l 389 850 l 286 364 q 286 317 280 339 q 308 278 292 295 q 347 252 323 262 q 399 243 370 243 l 538 243 q 594 252 567 243 q 643 278 621 262 q 681 316 665 294 q 701 364 696 338 l 804 850 l 943 850 l 814 243 m 654 924 l 571 924 l 689 1093 l 800 1093 l 654 924 z "},"û":{"ha":831,"x_min":111,"x_max":943,"o":"m 814 243 q 694 71 793 141 q 485 0 602 0 l 346 0 q 165 71 230 0 q 121 150 132 106 q 121 243 111 193 l 250 850 l 389 850 l 286 364 q 286 317 280 339 q 308 278 292 295 q 347 252 323 262 q 399 243 370 243 l 538 243 q 594 252 567 243 q 643 278 621 262 q 681 316 665 294 q 701 364 696 338 l 804 850 l 943 850 l 814 243 m 694 924 l 633 1025 l 529 924 l 446 924 l 591 1093 l 704 1093 l 779 924 l 694 924 z "},"ü":{"ha":831,"x_min":111,"x_max":943,"o":"m 814 243 q 694 71 793 141 q 485 0 602 0 l 346 0 q 165 71 230 0 q 121 150 132 106 q 121 243 111 193 l 250 850 l 389 850 l 286 364 q 286 317 280 339 q 308 278 292 295 q 347 252 323 262 q 399 243 370 243 l 538 243 q 594 252 567 243 q 643 278 621 262 q 681 316 665 294 q 701 364 696 338 l 804 850 l 943 850 l 814 243 m 404 924 l 431 1044 l 568 1044 l 543 924 l 404 924 m 682 924 l 707 1044 l 846 1044 l 821 924 l 682 924 z "},"ý":{"ha":831,"x_min":100,"x_max":943,"o":"m 736 -122 q 618 -294 715 -225 q 407 -366 524 -366 l 268 -366 l 321 -122 l 460 -122 q 517 -113 490 -122 q 566 -87 544 -103 q 603 -48 587 -71 q 624 0 618 -26 l 640 82 q 620 47 636 62 q 578 20 604 31 q 533 4 556 9 q 485 0 511 0 l 346 0 q 167 72 231 0 q 121 243 100 142 l 250 850 l 389 850 l 286 364 q 286 317 280 339 q 308 278 292 295 q 347 252 323 262 q 399 243 370 243 l 538 243 q 594 252 567 243 q 643 278 621 262 q 681 316 665 294 q 701 364 696 338 l 804 850 l 943 850 l 736 -122 m 654 924 l 571 924 l 689 1093 l 800 1093 l 654 924 z "},"þ":{"ha":831,"x_min":17,"x_max":886,"o":"m 701 364 q 700 412 706 389 q 679 451 694 434 q 640 477 663 467 q 587 486 616 486 l 311 486 l 260 243 l 538 243 q 593 252 566 243 q 643 278 621 262 q 680 317 665 295 q 701 364 696 339 m 814 243 q 774 150 804 193 q 696 72 744 108 q 485 0 599 0 l 208 0 l 155 -243 l 17 -243 l 277 972 l 414 972 l 364 729 l 640 729 q 742 711 698 729 q 821 657 786 692 q 865 486 886 586 l 814 243 z "},"ÿ":{"ha":831,"x_min":100,"x_max":943,"o":"m 736 -122 q 618 -294 715 -225 q 407 -366 524 -366 l 268 -366 l 321 -122 l 460 -122 q 517 -113 490 -122 q 566 -87 544 -103 q 603 -48 587 -71 q 624 0 618 -26 l 640 82 q 620 47 636 62 q 578 20 604 31 q 533 4 556 9 q 485 0 510 0 l 346 0 q 167 72 231 0 q 121 243 100 142 l 250 850 l 389 850 l 286 364 q 286 317 280 339 q 308 278 292 295 q 347 252 323 262 q 399 243 370 243 l 538 243 q 594 252 567 243 q 643 278 621 262 q 681 316 665 294 q 701 364 696 338 l 804 850 l 943 850 l 736 -122 m 404 924 l 431 1044 l 568 1044 l 543 924 l 404 924 m 682 924 l 707 1044 l 846 1044 l 821 924 l 682 924 z "},"¯":{"ha":656,"x_min":0,"x_max":656,"o":"m 0 850 l 0 972 l 656 972 l 656 850 l 0 850 z "},"ˉ":{"ha":656,"x_min":0,"x_max":656,"o":"m 0 850 l 0 972 l 656 972 l 656 850 l 0 850 z "},"ı":{"ha":277,"x_min":69,"x_max":389,"o":"m 69 0 l 250 850 l 389 850 l 208 0 l 69 0 z "},"ˇ":{"ha":471,"x_min":277,"x_max":608,"o":"m 461 802 l 350 802 l 277 972 l 358 972 l 421 869 l 525 972 l 608 972 l 461 802 z "},"˘":{"ha":1371,"x_min":61,"x_max":1310,"o":"m 465 293 l 465 518 l 543 518 l 543 293 l 465 293 m 812 160 l 521 160 l 547 220 l 790 220 l 694 456 l 693 456 l 693 517 l 760 517 l 760 693 l 465 693 l 465 911 l 329 911 l 329 456 l 151 456 l 151 61 l 852 61 l 812 160 m 1244 146 q 1092 236 1244 236 l 961 236 l 961 296 l 1104 296 q 1143 301 1125 296 q 1177 317 1161 307 q 1203 344 1194 330 q 1213 378 1213 359 q 1171 440 1213 420 q 1136 452 1155 449 q 1093 456 1116 456 l 757 456 l 921 60 l 1092 60 q 1150 62 1125 60 q 1190 72 1175 64 q 1244 146 1244 92 m 1310 136 q 1251 33 1310 71 q 1132 0 1204 0 l 90 0 l 90 515 l 267 515 l 267 911 l 122 911 l 122 839 l 61 839 l 72 972 l 597 972 l 597 911 l 530 911 l 530 753 l 822 753 l 822 515 l 1197 515 l 1197 633 l 1257 633 l 1257 456 l 1253 456 q 1271 423 1264 441 q 1278 382 1278 405 q 1260 314 1278 342 q 1207 269 1242 287 q 1310 136 1310 237 m 1194 793 l 1185 909 l 940 909 l 940 753 l 1071 753 l 1071 818 l 1131 818 l 1131 627 l 1071 627 l 1071 692 l 878 692 l 878 971 l 1253 971 l 1253 793 l 1194 793 z "},"˚":{"ha":471,"x_min":239,"x_max":592,"o":"m 522 827 q 521 864 526 846 q 504 895 516 882 q 473 916 492 908 q 432 924 455 924 q 387 916 409 924 q 348 895 366 908 q 318 864 330 882 q 301 827 305 846 q 301 788 296 806 q 318 757 306 770 q 349 736 330 744 q 392 729 368 729 q 436 736 414 729 q 475 757 457 744 q 505 788 492 770 q 522 827 517 806 m 578 827 q 554 770 572 796 q 507 724 536 745 q 447 691 479 702 q 380 681 415 681 q 271 724 311 681 q 245 770 251 745 q 245 827 239 796 q 269 883 252 857 q 315 929 286 908 q 376 961 345 950 q 441 972 407 972 q 504 961 477 972 q 551 929 530 950 q 578 827 592 886 z "},"−":{"ha":693,"x_min":150,"x_max":724,"o":"m 150 376 l 170 473 l 724 473 l 704 376 l 150 376 z "}," ":{"ha":624,"x_min":0,"x_max":0,"o":""}}}
